<svg xmlns="http://www.w3.org/2000/svg" version="1.0" width="4500.000000pt" height="1445.000000pt" viewBox="0 0 4500.000000 1445.000000" preserveAspectRatio="xMidYMid meet">
    <g transform="translate(0.000000,1300.000000) scale(0.100000,-0.100000)" fill="#313838" stroke="none">
    <path d="M2425 9508 c-3 -7 -4 -1217 -3 -2688 l3 -2675 920 -3 c1126 -4 1231 2 1525 79 285 76 530 210 716 394 113 112 178 200 248 335 123 238 175 488 163 790 -16 394 -154 723 -404 961 -123 117 -276 211 -415 255 -32 10 -58 21 -58 25 0 4 29 24 65 44 245 137 447 393 539 682 48 153 60 244 60 443 0 152 -4 203 -22 286 -61 283 -171 486 -364 670 -215 206 -493 331 -864 390 -96 15 -224 18 -1107 21 -817 4 -998 2 -1002 -9z m1915 -658 c342 -41 573 -243 646 -565 25 -109 26 -321 1 -427 -58 -247 -195 -426 -402 -524 -147 -70 -126 -68 -792 -72 l-603 -3 0 801 0 800 533 0 c301 0 569 -4 617 -10z m222 -2247 c353 -99 566 -331 634 -690 23 -122 15 -373 -16 -488 -63 -239 -214 -425 -428 -530 -174 -86 -291 -97 -947 -93 -489 3 -511 4 -544 23 -18 11 -42 36 -52 55 -18 33 -19 75 -19 893 l0 858 648 -3 c628 -4 649 -4 724 -25z"/>
    <path d="M22016 8712 c-6 -10 19 -136 37 -188 25 -68 53 -117 86 -149 28 -26 42 -30 110 -36 42 -4 91 -14 107 -22 63 -33 59 119 62 -2079 l2 -2008 211 0 211 0 -4 270 c-1 149 -2 270 -1 270 0 0 15 -24 31 -52 17 -29 60 -90 97 -135 316 -392 864 -533 1391 -357 334 112 617 361 783 692 84 167 142 350 177 552 21 128 30 467 15 611 -31 303 -120 589 -250 802 -203 335 -498 539 -886 613 -120 23 -375 24 -501 1 -264 -48 -474 -155 -651 -333 -70 -70 -170 -203 -186 -247 -11 -32 -13 11 -5 163 5 91 7 433 5 760 -3 579 -4 597 -25 660 -40 122 -127 190 -267 210 -83 11 -542 14 -549 2z m2092 -1622 c391 -94 666 -432 758 -935 26 -138 26 -508 1 -642 -98 -524 -392 -867 -817 -955 -134 -28 -327 -21 -453 16 -167 50 -286 124 -413 259 -162 172 -265 399 -321 707 -26 147 -23 456 6 625 73 417 260 698 568 854 76 38 214 79 308 91 99 12 266 3 363 -20z"/>
    <path d="M25506 8712 c-15 -25 37 -206 80 -279 39 -67 77 -89 162 -96 79 -6 111 -21 139 -64 17 -26 18 -133 23 -1918 l5 -1890 33 -67 c36 -73 75 -109 156 -142 47 -19 74 -21 349 -24 163 -2 297 -1 297 3 0 3 -7 40 -16 82 -27 133 -76 232 -132 269 -17 11 -58 20 -110 24 -96 8 -127 28 -142 96 -6 23 -10 816 -10 1879 0 1627 -2 1848 -15 1900 -20 74 -53 126 -107 165 -78 57 -115 63 -424 68 -184 2 -284 1 -288 -6z"/>
    <path d="M35080 8692 c0 -45 36 -175 64 -229 13 -27 42 -65 64 -85 35 -32 45 -35 116 -41 44 -3 88 -12 101 -21 55 -36 53 -20 57 -732 l3 -660 -58 88 c-170 258 -451 435 -781 490 -118 20 -353 15 -484 -11 -666 -130 -1098 -678 -1163 -1476 -31 -385 46 -826 196 -1125 91 -181 252 -375 405 -489 237 -177 544 -264 872 -247 368 18 650 131 915 365 51 44 95 81 98 81 3 0 5 -83 5 -185 l0 -185 215 0 215 0 -2 2113 c-3 2077 -4 2113 -23 2166 -26 71 -91 143 -154 170 -75 32 -164 41 -423 41 l-238 0 0 -28z m-360 -1597 c36 -10 103 -35 148 -56 304 -140 508 -437 594 -861 20 -99 23 -142 23 -353 -1 -258 -10 -336 -61 -512 -150 -518 -548 -803 -1061 -762 -335 27 -614 231 -773 564 -169 355 -194 899 -59 1282 134 380 397 630 745 707 93 21 352 15 444 -9z"/>
    <path d="M41748 8715 c-10 -10 23 -157 48 -218 29 -72 65 -122 102 -141 15 -7 56 -16 92 -18 89 -7 124 -27 144 -80 14 -37 16 -128 18 -690 2 -355 2 -646 1 -645 -1 1 -25 38 -54 82 -64 99 -219 255 -317 319 -353 232 -874 256 -1288 60 -272 -129 -513 -378 -653 -675 -179 -382 -229 -876 -135 -1349 127 -640 509 -1062 1067 -1182 137 -29 422 -31 571 -4 279 51 502 159 711 346 50 44 93 80 98 80 4 0 7 -83 7 -185 l0 -185 215 0 215 0 -3 2103 c-2 1876 -4 2107 -18 2152 -44 139 -121 202 -275 225 -71 10 -536 14 -546 5z m-333 -1629 c308 -92 538 -336 660 -699 135 -405 106 -945 -71 -1298 -108 -217 -281 -382 -491 -469 -217 -90 -513 -96 -731 -14 -329 123 -563 448 -643 890 -30 162 -32 499 -5 649 75 411 266 707 559 865 160 87 267 110 477 106 133 -3 168 -7 245 -30z"/>
    <path d="M27330 8410 l0 -280 210 0 210 0 0 280 0 280 -210 0 -210 0 0 -280z"/>
    <path d="M31912 8413 l3 -278 210 0 210 0 3 278 2 277 -215 0 -215 0 2 -277z"/>
    <path d="M15380 7881 l0 -209 76 -28 c125 -45 167 -99 145 -181 -6 -21 -411 -1075 -900 -2343 -605 -1569 -885 -2307 -877 -2312 6 -3 52 -14 101 -23 167 -32 324 -9 381 56 24 27 825 2049 875 2209 l33 105 16 -100 c31 -182 83 -316 177 -456 204 -305 613 -510 1048 -526 250 -10 467 37 700 151 157 77 276 160 406 284 176 167 296 335 414 577 166 339 247 677 247 1020 0 430 -135 773 -406 1040 -238 234 -606 392 -956 411 -296 17 -605 -84 -818 -265 -25 -22 -48 -39 -49 -37 -2 2 19 59 46 127 94 233 86 337 -33 447 -24 22 -67 52 -94 66 -58 29 -499 196 -519 196 -10 0 -13 -40 -13 -209z m1523 -736 c430 -75 739 -376 824 -801 23 -120 23 -382 0 -514 -38 -209 -113 -429 -209 -610 -158 -298 -400 -538 -645 -640 -145 -60 -212 -73 -388 -74 -187 0 -269 17 -421 88 -251 119 -411 296 -503 558 -51 148 -65 242 -65 438 0 247 36 428 130 662 122 305 300 555 503 708 121 92 313 173 456 193 72 10 239 6 318 -8z"/>
    <path d="M8125 8063 c-277 -17 -565 -80 -752 -164 -151 -68 -294 -192 -350 -304 -56 -112 -58 -132 -58 -490 l0 -330 40 3 c68 6 225 42 314 74 214 75 331 191 331 330 0 123 102 210 309 266 89 24 111 26 321 26 202 1 234 -2 315 -22 210 -53 339 -153 419 -324 66 -141 95 -288 96 -485 l0 -103 -198 0 c-699 0 -1321 -126 -1682 -341 -416 -247 -601 -593 -568 -1062 32 -464 337 -831 819 -985 171 -55 254 -67 469 -67 211 0 319 16 474 72 291 104 563 338 705 607 17 33 33 61 34 62 1 1 2 -77 2 -174 0 -161 2 -182 23 -233 46 -115 112 -177 233 -221 63 -23 71 -23 547 -26 265 -2 482 1 482 5 0 4 -7 46 -15 92 -35 202 -94 348 -171 431 -70 75 -109 92 -230 100 -107 6 -142 20 -166 62 -10 18 -14 229 -19 988 -6 1029 -7 1037 -58 1254 -109 455 -392 749 -846 880 -234 67 -543 97 -820 79z m995 -2170 c0 -535 -314 -1033 -743 -1179 -204 -69 -478 -53 -655 41 -211 110 -322 292 -322 525 0 323 209 533 637 641 221 56 429 76 816 78 l267 1 0 -107z"/>
    <path d="M10233 7919 c12 -105 56 -259 102 -355 71 -147 159 -214 281 -214 111 0 180 -45 224 -145 15 -33 285 -729 601 -1547 l574 -1488 424 3 425 2 582 1505 c320 828 594 1529 610 1558 38 75 87 102 202 111 105 9 153 31 212 98 52 59 90 132 123 239 27 84 57 229 57 271 l0 25 -427 -5 c-466 -5 -503 -9 -606 -64 -66 -37 -139 -119 -181 -206 -37 -75 -827 -2251 -878 -2417 -16 -52 -44 -158 -63 -234 -19 -77 -37 -141 -40 -144 -6 -6 -8 1 -41 138 -15 63 -40 159 -56 213 -38 130 -870 2352 -916 2446 -66 136 -164 216 -307 251 -34 8 -190 14 -479 17 l-429 5 6 -63z"/>
    <path d="M29908 7510 c-676 -71 -1205 -479 -1417 -1092 -204 -592 -84 -1265 305 -1713 604 -694 1796 -742 2471 -100 l73 70 -99 158 c-55 87 -101 161 -104 163 -2 3 -34 -23 -70 -57 -191 -181 -452 -314 -714 -366 -122 -24 -387 -24 -503 0 -447 93 -784 378 -928 787 -108 308 -100 702 22 1005 147 364 448 625 831 722 124 31 349 42 475 24 252 -37 463 -143 537 -269 25 -42 28 -57 31 -174 l4 -128 204 0 204 0 -1 178 c0 134 -4 193 -17 243 -58 221 -289 396 -646 490 -213 55 -470 78 -658 59z"/>
    <path d="M37610 7508 c-195 -18 -451 -83 -575 -146 -133 -66 -217 -144 -264 -242 -25 -53 -26 -62 -29 -262 -3 -180 -1 -208 12 -208 31 0 155 30 212 51 120 44 177 101 194 190 6 29 22 67 36 86 115 151 606 221 932 133 244 -67 391 -231 446 -503 16 -75 36 -271 36 -353 l0 -41 -297 -6 c-593 -12 -953 -79 -1279 -237 -250 -121 -419 -290 -503 -502 -87 -217 -87 -499 -1 -718 93 -235 308 -427 588 -524 159 -55 253 -70 437 -70 222 0 360 31 541 122 204 102 401 302 499 505 l33 68 4 -194 3 -194 35 -69 c27 -53 46 -76 83 -101 80 -54 99 -57 410 -60 259 -4 287 -3 287 12 0 43 -36 168 -66 232 -47 100 -82 125 -182 133 -83 6 -112 17 -136 52 -14 20 -16 116 -16 823 0 832 -7 1033 -41 1198 -26 128 -78 271 -130 361 -58 98 -210 248 -310 304 -238 134 -600 194 -959 160z m997 -1795 c-10 -231 -49 -401 -133 -582 -143 -306 -374 -511 -653 -582 -74 -19 -104 -21 -230 -16 -90 3 -169 11 -206 21 -87 25 -191 78 -260 133 -69 56 -152 174 -179 253 -24 69 -33 254 -17 332 35 165 157 313 336 405 255 130 547 178 1099 182 l249 1 -6 -147z"/>
    <path d="M18370 7413 c0 -44 38 -179 65 -232 13 -25 39 -61 59 -80 33 -32 42 -35 113 -41 87 -6 115 -18 141 -57 16 -25 17 -94 22 -958 6 -898 6 -934 27 -1045 51 -272 125 -431 267 -578 122 -126 261 -197 478 -243 84 -18 137 -22 288 -23 206 -1 293 12 453 66 326 108 629 366 778 661 22 42 40 77 42 77 1 0 2 -114 2 -252 l0 -253 28 -57 c33 -67 81 -110 157 -140 52 -21 74 -23 348 -26 280 -3 294 -3 289 15 -3 10 -8 36 -12 58 -15 98 -56 195 -104 247 l-47 51 -84 7 c-47 3 -94 12 -106 20 -52 32 -49 -46 -52 1433 l-2 1377 -220 0 -219 0 -4 -882 c-3 -868 -3 -885 -25 -980 -123 -541 -482 -918 -952 -998 -103 -18 -308 -16 -400 4 -220 47 -368 189 -439 420 -48 155 -51 235 -51 1189 0 540 -4 920 -10 962 -19 134 -78 213 -190 257 -51 21 -75 22 -347 26 l-293 4 0 -29z"/>
    <path d="M26910 7423 c0 -39 41 -186 66 -236 49 -97 91 -127 179 -127 73 0 119 -20 142 -62 17 -31 18 -99 23 -1283 l5 -1250 33 -68 c37 -74 73 -107 154 -140 49 -20 73 -22 351 -25 285 -3 299 -3 294 15 -3 10 -8 36 -11 58 -15 92 -60 198 -106 248 l-46 50 -87 7 c-99 8 -129 26 -147 89 -6 23 -10 476 -10 1247 0 1202 0 1212 -21 1280 -17 57 -30 78 -74 121 -84 82 -106 86 -452 91 -278 3 -293 2 -293 -15z"/>
    <path d="M31500 7414 c0 -95 68 -262 128 -316 40 -36 46 -38 108 -38 38 0 79 -6 98 -15 65 -31 60 64 66 -1305 5 -1156 6 -1249 23 -1297 23 -69 73 -132 126 -162 82 -45 128 -51 420 -51 l274 0 -7 52 c-11 78 -55 204 -88 249 -43 59 -82 79 -156 79 -69 0 -114 18 -134 53 -10 17 -14 282 -18 1272 l-5 1250 -24 60 c-31 78 -89 135 -166 166 -57 23 -72 24 -352 27 l-293 3 0 -27z"/>
    </g>
</svg>