<svg xmlns="http://www.w3.org/2000/svg" viewBox="0 0 50.16 50.26"><defs><style>.cls-1{fill:#a8886b;opacity:0.99;}</style></defs><g id="Capa_2" data-name="Capa 2"><g id="Capa_1-2" data-name="Capa 1"><path class="cls-1" d="M35.35,50.26c-1-.18-2-.31-3-.54a33.12,33.12,0,0,1-9.59-4.1,54.74,54.74,0,0,1-18-17.51,29.52,29.52,0,0,1-4.48-11C-.5,12.32.28,7.92,3.49,4.2A18.57,18.57,0,0,1,7.27,1a6.2,6.2,0,0,1,7.61.76,17.56,17.56,0,0,1,1.67,2.05c1,1.23,1.94,2.47,2.91,3.7a6.51,6.51,0,0,1-.19,8.27c-1.11,1.3-2.21,2.62-3.33,3.92a.53.53,0,0,0-.09.65,26.7,26.7,0,0,0,14,14,.51.51,0,0,0,.61-.09c1.3-1.12,2.63-2.21,3.92-3.34a6.54,6.54,0,0,1,8.31-.2c1.67,1.32,3.34,2.63,5,3.92a6.18,6.18,0,0,1,2.31,3.86c0,.12.07.24.1.36v1.48a3,3,0,0,0-.09.32,6.45,6.45,0,0,1-1.52,3.24l-1.78,2a12,12,0,0,1-5.49,3.62c-1,.31-2,.47-3,.69Z"/></g></g></svg>