<svg xmlns="http://www.w3.org/2000/svg" viewBox="0 0 50.16 46.02"><defs><style>.cls-1{opacity:0.99;}.cls-2{fill:#a8886b;}</style></defs><g id="Capa_2" data-name="Capa 2"><g id="Capa_1-2" data-name="Capa 1"><g class="cls-1"><path class="cls-2" d="M50.16,9.88V36.53a1.29,1.29,0,0,0-.08.28A10.39,10.39,0,0,1,39.69,46q-14.61.06-29.23,0A10.38,10.38,0,0,1,0,35.67c0-8.39,0-16.78,0-25.16,0-.3.06-.59.1-1l.42.4L12.41,21.82,17.6,27a10.5,10.5,0,0,0,15,0q8.49-8.51,17-17L50,9.59Z"/><path class="cls-2" d="M1.49,5.14a10.4,10.4,0,0,1,9-5.11Q25.08,0,39.62,0a10.29,10.29,0,0,1,9,5l-.37.39L29.75,23.92a6.29,6.29,0,0,1-9.35,0L2,5.48A3.3,3.3,0,0,0,1.49,5.14Z"/></g></g></g></svg>