<svg xmlns="http://www.w3.org/2000/svg" viewBox="0 0 52.48 62.67"><defs><style>.cls-1{opacity:0.99;}.cls-2{fill:#a8886b;}</style></defs><g id="Capa_2" data-name="Capa 2"><g id="Capa_1-2" data-name="Capa 1"><g class="cls-1"><path class="cls-2" d="M24.92,62.67c-1.13-.27-2.28-.46-3.36-.83a12.84,12.84,0,0,1-6.32-4.62,126,126,0,0,1-11.3-18A44.1,44.1,0,0,1,.72,31.07,21,21,0,0,1,1,19.24C3.84,9.79,10.06,3.6,19.56.93a26.19,26.19,0,0,1,30.51,14.3,25.2,25.2,0,0,1,2.36,12.23,25.16,25.16,0,0,1-2.13,8,89.67,89.67,0,0,1-8.71,15.61c-1.25,1.88-2.56,3.72-3.87,5.57a13.66,13.66,0,0,1-9.83,5.95,1.31,1.31,0,0,0-.28.09Zm1.32-57c-1,.08-2,.09-3,.26C15.52,7.33,10.08,11.62,7.12,18.9A16.34,16.34,0,0,0,6.9,31.75c.84,2,1.69,4.06,2.69,6a122.15,122.15,0,0,0,9.89,15.63A8.18,8.18,0,0,0,33,53.4c1.51-2.1,3-4.22,4.41-6.38a80.72,80.72,0,0,0,7.85-14.33,17.74,17.74,0,0,0,1.32-9.31A20.69,20.69,0,0,0,26.24,5.7Z"/><path class="cls-2" d="M15.84,26.18a10.43,10.43,0,1,1,10.51,10.4A10.42,10.42,0,0,1,15.84,26.18Zm10.45-5.25a5.22,5.22,0,1,0,5.2,5.22A5.21,5.21,0,0,0,26.29,20.93Z"/></g></g></g></svg>