<?xml version="1.0" encoding="UTF-8"?>
<svg xmlns="http://www.w3.org/2000/svg" xmlns:xlink="http://www.w3.org/1999/xlink" width="50px" height="60px" viewBox="0 0 50 60" version="1.1">
<g id="surface1">
<path style=" stroke:none;fill-rule:nonzero;fill:rgb(72.941176%,56.078431%,41.176471%);fill-opacity:1;" d="M 25.019531 59.96875 C 21.046875 60.167969 17.25 58.316406 14.957031 55.0625 C 10.789062 49.609375 7.097656 43.804688 3.929688 37.714844 C 2.609375 35.164062 1.535156 32.492188 0.730469 29.734375 C -0.339844 25.859375 -0.21875 21.753906 1.078125 17.949219 C 4.070312 8.574219 10.410156 2.601562 20.023438 0.558594 C 33.394531 -2.230469 46.519531 6.257812 49.460938 19.59375 C 50.503906 24.410156 49.945312 29.4375 47.863281 33.902344 C 45.695312 38.828125 43.078125 43.539062 40.046875 47.984375 C 38.523438 50.257812 36.9375 52.492188 35.351562 54.726562 C 33.40625 57.550781 30.378906 59.445312 26.984375 59.949219 C 26.332031 60.011719 25.675781 60.015625 25.019531 59.96875 Z M 15.027344 24.929688 C 15.027344 30.421875 19.472656 34.878906 24.964844 34.902344 C 30.457031 34.921875 34.929688 30.496094 34.972656 25 C 35.011719 19.507812 30.601562 15.019531 25.109375 14.957031 C 22.445312 14.929688 19.882812 15.964844 17.988281 17.839844 C 16.09375 19.710938 15.027344 22.265625 15.027344 24.929688 Z M 15.027344 24.929688 "/>
<path style=" stroke:none;fill-rule:nonzero;fill:rgb(72.941176%,56.078431%,41.176471%);fill-opacity:1;" d="M 12.355469 11.046875 L 38.621094 11.046875 L 38.621094 38.929688 L 12.355469 38.929688 Z M 12.355469 11.046875 "/>
<path style=" stroke:none;fill-rule:nonzero;fill:rgb(19.215686%,21.960784%,21.960784%);fill-opacity:1;" d="M 14.429688 34.972656 L 15.1875 34.972656 L 18.789062 27.921875 L 18.039062 27.921875 Z M 26.925781 10.460938 L 24.183594 15.835938 L 33.40625 34.972656 L 38.589844 34.972656 Z M 26.925781 10.460938 "/>
<path style=" stroke:none;fill-rule:nonzero;fill:rgb(19.215686%,21.960784%,21.960784%);fill-opacity:1;" d="M 13.710938 22.097656 C 13.378906 22.035156 13.09375 21.824219 12.933594 21.527344 C 12.703125 21.039062 12.601562 20.496094 12.636719 19.953125 C 12.625 19.410156 12.738281 18.871094 12.964844 18.378906 C 13.035156 18.242188 13.125 18.117188 13.234375 18.007812 C 12.824219 18.097656 12.449219 18.296875 12.144531 18.585938 C 11.695312 18.992188 11.449219 19.578125 11.46875 20.183594 C 11.445312 20.703125 11.644531 21.210938 12.015625 21.578125 C 12.410156 21.949219 12.933594 22.140625 13.472656 22.117188 Z M 16.234375 19.453125 C 16.082031 19.074219 15.84375 18.730469 15.535156 18.457031 C 15.308594 18.253906 15.046875 18.09375 14.757812 17.988281 L 14.699219 17.988281 C 14.78125 18.082031 14.851562 18.191406 14.898438 18.308594 C 15.597656 20.238281 15.21875 22.394531 13.902344 23.972656 C 13.742188 24.167969 13.566406 24.351562 13.382812 24.519531 C 14.128906 24.234375 14.808594 23.796875 15.378906 23.234375 C 16.078125 22.570312 16.476562 21.648438 16.472656 20.679688 C 16.476562 20.261719 16.394531 19.84375 16.234375 19.453125 Z M 16.234375 19.453125 "/>
<path style=" stroke:none;fill-rule:nonzero;fill:rgb(19.215686%,21.960784%,21.960784%);fill-opacity:1;" d="M 21.03125 20.453125 C 21.363281 20.515625 21.648438 20.722656 21.808594 21.019531 C 22.035156 21.511719 22.136719 22.054688 22.097656 22.597656 C 22.128906 23.136719 22.03125 23.675781 21.820312 24.171875 C 21.753906 24.308594 21.667969 24.433594 21.558594 24.539062 C 21.972656 24.441406 22.347656 24.234375 22.648438 23.933594 C 23.097656 23.527344 23.34375 22.941406 23.324219 22.335938 C 23.347656 21.816406 23.148438 21.308594 22.777344 20.941406 C 22.382812 20.570312 21.859375 20.378906 21.320312 20.402344 Z M 18.507812 23.09375 C 18.664062 23.472656 18.902344 23.816406 19.207031 24.089844 C 19.4375 24.289062 19.699219 24.445312 19.984375 24.550781 L 20.042969 24.550781 C 19.960938 24.457031 19.894531 24.347656 19.84375 24.230469 C 19.144531 22.300781 19.527344 20.144531 20.839844 18.566406 C 21 18.371094 21.171875 18.1875 21.359375 18.019531 C 20.613281 18.304688 19.933594 18.742188 19.367188 19.304688 C 18.664062 19.96875 18.269531 20.894531 18.269531 21.859375 C 18.261719 22.28125 18.339844 22.703125 18.507812 23.09375 Z M 18.507812 23.09375 "/>
</g>
</svg>
