<svg xmlns="http://www.w3.org/2000/svg" viewBox="0 0 46.86 46.87"><defs><style>.cls-1{fill:#a8886b;}</style></defs><g id="Capa_2" data-name="Capa 2"><g id="Capa_1-2" data-name="Capa 1"><path class="cls-1" d="M12.81,0H34.05l1.21.18a13.32,13.32,0,0,1,7.66,4,13.64,13.64,0,0,1,3.94,9.93c0,6.15,0,12.3,0,18.44a19.13,19.13,0,0,1-.19,2.83,13.22,13.22,0,0,1-3.95,7.61,13.77,13.77,0,0,1-10,3.93c-6.21,0-12.41,0-18.62,0a13.8,13.8,0,0,1-6.7-1.56A13.42,13.42,0,0,1,.55,36.86C.28,36,.18,35,0,34.05V12.81c0-.1.06-.2.07-.3a13,13,0,0,1,1.49-5.1A13.44,13.44,0,0,1,10,.55C10.91.28,11.87.18,12.81,0ZM23.42,45h9.47a12.12,12.12,0,0,0,3.88-.57A11.91,11.91,0,0,0,45,33q0-9.59,0-19.18A11.91,11.91,0,0,0,33,1.83q-9.54,0-19.08,0a12.18,12.18,0,0,0-3.79.57A11.88,11.88,0,0,0,1.84,13.79c0,6.42,0,12.84,0,19.26A11.47,11.47,0,0,0,3.4,39,11.77,11.77,0,0,0,14,45C17.17,45.05,20.29,45,23.42,45Z"/><path class="cls-1" d="M4,23.41c0-3.17,0-6.35,0-9.52a9.6,9.6,0,0,1,6.63-9.33,10.36,10.36,0,0,1,3.13-.51c6.42,0,12.84,0,19.27,0a9.68,9.68,0,0,1,9.55,7.67,10.31,10.31,0,0,1,.21,2.22q0,9.49,0,19a9.66,9.66,0,0,1-7.57,9.67,9.32,9.32,0,0,1-2,.24c-1.81,0-3.63,0-5.44,0-.62,0-1-.3-1.06-.79s.34-1,1.05-1c1.72,0,3.44,0,5.17,0a11,11,0,0,0,2.21-.27A7.86,7.86,0,0,0,41,33.61c0-.19,0-.39,0-.59q0-9.59,0-19.17A7.84,7.84,0,0,0,34.58,6a8.21,8.21,0,0,0-1.64-.15q-9.51,0-19,0a7.86,7.86,0,0,0-8,8.05q0,9.51,0,19A7.87,7.87,0,0,0,13.94,41H19a1.88,1.88,0,0,1,.58.07.82.82,0,0,1,.61.82.85.85,0,0,1-.62.87,1.9,1.9,0,0,1-.54.06c-1.73,0-3.47,0-5.21,0a9.62,9.62,0,0,1-9.3-6.67,11,11,0,0,1-.49-3.23C4,29.75,4,26.58,4,23.41Z"/><path class="cls-1" d="M36.1,23.41A12.65,12.65,0,0,1,11,25.78a12.35,12.35,0,0,1,1.31-8.36,1.44,1.44,0,0,1,.76-.64.88.88,0,0,1,1,1.27c-.29.72-.65,1.41-.89,2.15A10.77,10.77,0,0,0,31.63,30.43a10.08,10.08,0,0,0,2.44-8.64,10.45,10.45,0,0,0-8.38-8.9,10.17,10.17,0,0,0-6.41.58c-.29.12-.58.27-.88.37a.9.9,0,1,1-.67-1.66,20.06,20.06,0,0,1,3-1,12,12,0,0,1,8.44,1,12.37,12.37,0,0,1,6.75,9.28C36,22.11,36,22.76,36.1,23.41Z"/><path class="cls-1" d="M31.67,23.42a8.24,8.24,0,1,1-8.25-8.23A8.27,8.27,0,0,1,31.67,23.42Zm-1.83,0a6.41,6.41,0,1,0-6.4,6.41A6.42,6.42,0,0,0,29.84,23.43Z"/><path class="cls-1" d="M38.91,11.42a3.5,3.5,0,0,1-3.46,3.48A3.54,3.54,0,0,1,32,11.39,3.5,3.5,0,0,1,35.46,8,3.47,3.47,0,0,1,38.91,11.42ZM35.43,9.78a1.66,1.66,0,0,0-1.64,1.62,1.69,1.69,0,0,0,1.66,1.67,1.65,1.65,0,0,0,1.63-1.64A1.63,1.63,0,0,0,35.43,9.78Z"/><path class="cls-1" d="M16.32,14.88a1,1,0,0,1-.92.94.93.93,0,0,1-.92-.89,1,1,0,0,1,1-.95A.9.9,0,0,1,16.32,14.88Z"/><path class="cls-1" d="M23.42,41a.91.91,0,1,1-.9.92A.95.95,0,0,1,23.42,41Z"/></g></g></svg>