<svg xmlns="http://www.w3.org/2000/svg" viewBox="0 0 140.21 140.22"><defs><style>.cls-1{fill:#a8886b;}</style></defs><g id="Capa_2" data-name="Capa 2"><g id="Capa_1-2" data-name="Capa 1"><path class="cls-1" d="M140.21,138c-.72,1.69-2,2.2-3.82,2.2q-66.25,0-132.53,0H3.73c-2.35,0-3.68-1-3.69-2.74s1.31-2.73,3.67-2.74h16c0-3.19,0-6.28,0-9.37a26.58,26.58,0,0,1,1.51-9.4,26.89,26.89,0,0,1,16.84-16.8l17.19-6.29c1.92-.71,2.07-.93,2.08-3s0-4.29,0-6.43a1.76,1.76,0,0,0-.71-1.24c-2.19-1.32-4.42-2.56-6.63-3.83-4.74-2.72-6.89-7-7.23-12.28-.13-2,.49-4.13-.18-5.83S40,57.37,38.7,55.92C30.26,46.64,29.6,34,37,24.11a15.31,15.31,0,0,1,1.34-1.56c5.79-5.82,11.57-11.66,17.41-17.44A16.93,16.93,0,0,1,65.65.24,3.17,3.17,0,0,0,66.27,0h3.56c1.23.29,2.49.49,3.68.89A16.33,16.33,0,0,1,84,11.08a6.65,6.65,0,0,0,1.4,2.27C91,19,96.53,24.7,102.27,30.18c6.64,6.33,7.24,17-1.51,24A5.39,5.39,0,0,1,99,55.21c-1.34.39-1.61,1.18-1.59,2.5a78.06,78.06,0,0,1-.27,10.38,13.37,13.37,0,0,1-7,10.25c-2.22,1.27-4.45,2.5-6.62,3.84a1.89,1.89,0,0,0-.76,1.35c-.08,2,0,3.92,0,5.89,0,2.59.09,2.72,2.57,3.63q8.36,3,16.69,6.09c11.51,4.21,18.38,14,18.4,26.29,0,3,0,6.09,0,9.29h2.27c4.56,0,9.12.05,13.68,0,1.8,0,3.09.52,3.79,2.22ZM36.7,134.66v-1.6c0-3.56,0-7.12,0-10.68.07-5.09,3.46-9.54,8.22-9.95s9.84-.19,14.76-.14A2.54,2.54,0,0,1,62,114.88a2.64,2.64,0,0,1-2.14,2.63,8.83,8.83,0,0,1-1.63.16c-3.69,0-7.39,0-11.08,0-3.24,0-5,1.79-5,5,0,3.61,0,7.21,0,10.81,0,.4,0,.79.08,1.15H98c0-4.36.1-8.64,0-12.91a4.25,4.25,0,0,0-4.26-4c-1.18-.07-2.37,0-3.56,0-3,0-6,0-9,0a2.81,2.81,0,0,1-3-2.72,2.74,2.74,0,0,1,3-2.72c4.42,0,8.85-.08,13.27.09a9.39,9.39,0,0,1,8.91,8.35c.35,4.12.19,8.29.25,12.44,0,.52,0,1,0,1.55h11.29c0-4.09.3-8.12-.06-12.09-.73-7.81-4.74-13.77-11.85-17C96.42,102.63,89.62,100.48,83,98c-4-1.49-5.62-3.8-5.63-8.06V85.7c-4.92,3.29-9.63,3.23-14.51,0v4.14c0,4.46-1.55,6.65-5.79,8.2L40,104.3a21.55,21.55,0,0,0-13.42,13.12c-2.11,5.6-1.1,11.43-1.38,17.24ZM71.06,37c-.43.51-.73.92-1.08,1.28L52.07,56.17c-1.29,1.29-3.06,2.4-3.69,4s-.26,3.69-.17,5.55A9.1,9.1,0,0,0,53,73.77c4.5,2.52,9,5,13.41,7.69a6.69,6.69,0,0,0,7.45,0c4.51-2.67,9.09-5.21,13.63-7.83a7.8,7.8,0,0,0,4.25-6.2c.26-3.8.06-7.63.06-11.53a12,12,0,0,1-5.28-3.5c-2.13-2.19-4.32-4.33-6.48-6.49ZM77,9.82c-.08.34-.18.63-.22.93a16.9,16.9,0,0,1-5.37,10.19c-1.71,1.65-3.36,3.36-5,5a9.7,9.7,0,0,1-1.75,1.52,2.6,2.6,0,0,1-4-2.13,4.44,4.44,0,0,1,1.24-2.59c2.23-2.41,4.65-4.65,6.89-7a10.49,10.49,0,0,0,2.66-8.48c-.08-.89-.34-1.44-1.43-1.58-3.43-.42-6.73.1-9.22,2.46Q51.4,17,42.4,26.3C37.87,31,36.55,36.8,37.83,43.16c1,4.91,4,8.58,7.7,11.75.28-.26.49-.44.68-.63L75.93,24.55A15.91,15.91,0,0,0,77,23.34C80.24,19.44,80.26,13.24,77,9.82ZM75.09,33.19a2.62,2.62,0,0,0,.26.34L87.84,46c1.16,1.16,2.28,2.36,3.5,3.47a4.59,4.59,0,0,0,6.12.29c5.42-4.31,5.82-10.77.94-15.67L85.62,21.33c-.31-.31-.65-.59-1.17-1.06C83.26,26.11,78.71,29.27,75.09,33.19Z"/><path class="cls-1" d="M140.21,76.68c-.74,1.64-1.36,3.35-2.24,4.92a2.65,2.65,0,0,1-3.77,1,2.61,2.61,0,0,1-.79-3.82c2-2.86,1.66-5.69-.77-8.45-1.95-2.22-3.52-4.64-3.73-7.73a10.93,10.93,0,0,1,1.9-7.25c.82-1.15,1.67-2.29,2.59-3.36a2.72,2.72,0,1,1,4.26,3.37c-.6.86-1.3,1.65-1.94,2.48a5.84,5.84,0,0,0,.06,7.67,30.93,30.93,0,0,1,2.68,3.61,34.75,34.75,0,0,1,1.75,4.27Z"/><path class="cls-1" d="M120.38,85.44A11.64,11.64,0,0,1,118,92.69a2.67,2.67,0,0,1-3.63.77,2.54,2.54,0,0,1-.89-3.67c2.22-3.28,1.56-6.12-.93-8.9s-4-6.14-3.42-10.12c.55-3.48,2.67-6,5-8.43a2.64,2.64,0,0,1,4,3.23,28.17,28.17,0,0,1-2.17,3c-2.08,2.74-2.08,5.25,0,8,1.63,2.07,3.43,4,4,6.76C120.21,84.12,120.31,85,120.38,85.44Z"/><path class="cls-1" d="M9.82,64.16a23.55,23.55,0,0,1-1.18,2.33c-.58.86-1.31,1.63-1.93,2.48a5.68,5.68,0,0,0,0,7.09c.91,1.25,1.93,2.43,2.8,3.71A11.16,11.16,0,0,1,9,92.68a2.69,2.69,0,0,1-3.74.72,2.66,2.66,0,0,1-.83-3.61,16,16,0,0,0,1.07-2.05A5.65,5.65,0,0,0,4.6,82.2c-.91-1.2-1.89-2.35-2.72-3.59a10.86,10.86,0,0,1,0-12.22A37.24,37.24,0,0,1,5,62.45,2.16,2.16,0,0,1,7.91,62,10.91,10.91,0,0,1,9.82,64.16Z"/><path class="cls-1" d="M29.34,53.87a12.7,12.7,0,0,1-.83,1.66c-.47.72-1.06,1.37-1.6,2-2.15,2.74-2.16,5.33,0,8.08,1.51,1.93,3.15,3.77,3.82,6.23a11,11,0,0,1-1.58,9.5c-1.07,1.58-2.64,2-4,1.21s-1.63-2.47-.61-4.18c1.66-2.76,1.54-4.86-.44-7.42-.56-.72-1.14-1.42-1.69-2.15a11.55,11.55,0,0,1-2.54-6.22,10.7,10.7,0,0,1,1.73-7,42.64,42.64,0,0,1,2.91-3.78,2.58,2.58,0,0,1,3.11-.73A2.83,2.83,0,0,1,29.34,53.87Z"/><path class="cls-1" d="M67.86,114.9a2.68,2.68,0,0,1,2.7-2.67,2.7,2.7,0,0,1,2.69,2.69,2.7,2.7,0,1,1-5.39,0Z"/><path class="cls-1" d="M70.15,73.72A38.7,38.7,0,0,1,65.65,72a2.68,2.68,0,1,1,2.67-4.65,3.45,3.45,0,0,0,3.6,0,2.67,2.67,0,0,1,2.68,4.62A38.59,38.59,0,0,1,70.15,73.72Z"/><path class="cls-1" d="M59.19,32a2.69,2.69,0,0,1-2.74,2.63,2.75,2.75,0,0,1-2.64-2.76,2.71,2.71,0,0,1,2.77-2.62A2.64,2.64,0,0,1,59.19,32Z"/></g></g></svg>