<svg xmlns="http://www.w3.org/2000/svg" viewBox="0 0 140.21 137.53"><defs><style>.cls-1{fill:#a8886b;}</style></defs><g id="Capa_2" data-name="Capa 2"><g id="Capa_1-2" data-name="Capa 1"><path class="cls-1" d="M0,118.06c.81-2.8,2.79-4.54,5.17-6.06,4.95-3.18,9.93-6.33,14.65-9.83,4.42-3.29,8.51-7,12.77-10.54,6-5,12-10,18.13-14.79,3.43-2.69,7.43-4.61,10.57-7.74a2.05,2.05,0,0,1,3.06.06,2.15,2.15,0,0,1-.17,3.17c-1.7,1.52-3.52,2.9-5.22,4.42a3.61,3.61,0,0,0-1.13,1.74,14.49,14.49,0,0,0,1,9.61,9.67,9.67,0,0,0,5.44,5.1,31.47,31.47,0,0,0,11.1,1.92c7.29.16,14.58.61,21.86,1,2,.1,2.63,1,2.42,3-.32,3.12-.71,6.24-1.09,9.6,2.3,0,4.5,0,6.71,0,.23,0,.57-.54.64-.87.88-4.19,1.77-8.38,2.57-12.59a7.07,7.07,0,0,0-4.83-8.29,86.54,86.54,0,0,0-15.42-4.17c-2.11-.33-4.17-1-6.28-1.33-3.85-.69-7.72-1.31-11.59-1.92-1.67-.27-2.61-1.19-2.41-2.52s1.33-2,3-1.83a32,32,0,0,1,4.06.54,6.28,6.28,0,0,0,5.37-1.17c3.14-2.1,6.41-4,9.57-6.11a29.46,29.46,0,0,0,9.43-10.47,6.78,6.78,0,0,0,.39-6.67,29.53,29.53,0,0,1-1.86,2.3c-1.23,1.22-2.52,1.29-3.46.3s-.77-2.24.46-3.47l39-39a11.53,11.53,0,0,0,1.12-1.2,3.5,3.5,0,0,0-.2-4.63,3.59,3.59,0,0,0-4.74-.41,5.08,5.08,0,0,1-1.64.9,1.94,1.94,0,0,1-2.23-1.18,2.05,2.05,0,0,1,.55-2.6A7.42,7.42,0,0,1,134.22.31a7.6,7.6,0,0,1,5.68,5.56,7.71,7.71,0,0,1-1.75,7.4c-.48.55-1,1.05-1.53,1.57Q120.46,31,104.27,47.16a1.73,1.73,0,0,0-.44,2.34,10.65,10.65,0,0,1-.19,9.63A31.64,31.64,0,0,1,93.76,71c-2.87,2.09-5.93,3.92-8.91,5.86-.18.12-.34.27-.75.59,3.49.68,6.77,1.14,10,2a109.65,109.65,0,0,1,12.1,3.82c5.16,2,7.74,7.53,6.58,13.18q-2.9,14.06-5.81,28.12c0,.17-.06.35-.11.66,1.33.35,2.62.74,3.94,1a9.45,9.45,0,0,1,7.28,6.16,1.73,1.73,0,0,0,1.34.68c5.84,0,11.68,0,17.52,0,2.24,0,3.28.69,3.29,2.18s-1,2.2-3.26,2.2q-66.87,0-133.75,0A3.44,3.44,0,0,1,0,136.14v-1.65c1.15-1.88,3.16-1.2,4.85-1.41-.53-1.21-1-2.24-1.42-3.29C2.27,126.89,1.14,124,0,121.07Zm18.36,15H91.68c-.64-3.48-.63-3.47.27-7.14a15.31,15.31,0,0,0,.35-1.74q1.1-9.17,2.17-18.34c.21-1.83.39-3.66.63-5.8-6.7-.2-13.16-.47-19.63-.56A34.58,34.58,0,0,1,65.35,98.2a2.37,2.37,0,0,0-1.55.12c-8,3.6-16,7.25-24,10.85a154.43,154.43,0,0,0-22.44,12.45,1.27,1.27,0,0,0-.69,1.53C17.25,126.42,17.79,129.7,18.36,133.06ZM59.17,95.54c-4.76-5-4.89-5.35-6.28-14.9-.45.33-.87.58-1.23.89Q38.37,92.6,25.1,103.69a1.32,1.32,0,0,0-.41,1.11c.68,1.92,1.45,3.81,2.15,5.59ZM20.76,106.89c-5.09,3.4-10,6.67-14.92,10a2.87,2.87,0,0,0-1.32,3.45c1.17,3.25,2.39,6.49,3.78,9.65a5.07,5.07,0,0,0,5.58,2.92c-.62-3.63-1.21-7.27-1.89-10.89a2.65,2.65,0,0,1,1.42-3.07c2.06-1.26,4.08-2.58,6.11-3.88l3.53-2.26Zm92.5,26.23.28-.59a18.17,18.17,0,0,0-3.19-1.82c-2.06-.68-4.22-1.09-6.33-1.65-1.65-.44-2.17-1.23-1.88-2.92s.65-3.21,1-4.82c.55-2.7,1.09-5.4,1.65-8.15H98.33c-.93,5.49-1.86,10.86-2.74,16.24a3.19,3.19,0,0,0,3.1,3.7c1.41.06,2.82,0,4.24,0Z"/><path class="cls-1" d="M76.11,22.33a28.5,28.5,0,0,1-3-.65,7.52,7.52,0,0,1-4.76-9.46c.44-1.44,1-2.84,1.48-4.26A7.36,7.36,0,0,1,76,2.86a7.48,7.48,0,0,1,7.37,2.95l.54.67c5.68-2.43,11-2,15.92,1.89s5.45,9.51,5,15.62c.54-.45.85-.67,1.11-.93,2.74-2.74,5.48-5.49,8.23-8.22a17.4,17.4,0,0,0,5.36-11.92,4.48,4.48,0,0,1,.32-1.73A2,2,0,0,1,122.22.1a2.09,2.09,0,0,1,1.65,2.23,17.3,17.3,0,0,1-1.69,8.23,30,30,0,0,1-4.58,6.89c-9.17,9.41-18.52,18.64-27.81,27.93-1.27,1.27-2.8,1.32-3.65.13a2.1,2.1,0,0,1,.29-3c1-1,2.06-1.91,3.37-3.11L84.88,36.8c-.19.6-.38,1.13-.53,1.67a80.89,80.89,0,0,1-8.23,19,2.38,2.38,0,0,1-2.54,1.44C72,58.66,71.4,57,72.25,55.38,73.86,52.27,75.64,49.22,77,46c1.53-3.74,2.65-7.65,3.89-11.51A1.77,1.77,0,0,0,80.59,33,19.55,19.55,0,0,1,76.11,22.33Zm24.39-4.5-1.09.86a15.48,15.48,0,0,1-10,3.55,2,2,0,0,1-2.14-1.86A2,2,0,0,1,88.88,18a8.1,8.1,0,0,1,1.48-.19,11,11,0,0,0,8.09-4.49,10.08,10.08,0,0,0-12.29-3,2.69,2.69,0,0,0-1.56,1.86c-.95,2.86-1.42,6-3.87,8.15a.93.93,0,0,0-.25.6,13.72,13.72,0,0,0,2.27,7.63c.39-.9.67-1.6,1-2.29.62-1.4,1.74-1.95,2.94-1.46s1.63,1.67,1.1,3.11c-.41,1.11-.82,2.22-1.33,3.29-.37.77-.3,1.31.48,1.65,1.91.83,3.82,1.66,5.77,2.38a1.71,1.71,0,0,0,1.42-.41c2-1.89,3.9-3.84,5.81-5.8a1.83,1.83,0,0,0,.55-1.16C100.52,24.62,100.5,21.38,100.5,17.83ZM80.79,10.4a4,4,0,0,0-2.9-3.21A3.35,3.35,0,0,0,74.05,9.1c-.6,1.46-1.11,3-1.58,4.49a3.11,3.11,0,0,0,1.62,3.79c1.37.71,3.36.52,4.06-.76A63.41,63.41,0,0,0,80.79,10.4Z"/><path class="cls-1" d="M71.22,63.75a2.66,2.66,0,0,1-2.44,2.61,2.17,2.17,0,0,1-2.23-2.1A2.79,2.79,0,0,1,69,61.64,2.11,2.11,0,0,1,71.22,63.75Z"/></g></g></svg>