<svg xmlns="http://www.w3.org/2000/svg" viewBox="0 0 115.07 170.88"><defs><style>.cls-1{fill:#a8886b;}</style></defs><g id="Capa_2" data-name="Capa 2"><g id="Capa_1-2" data-name="Capa 1"><path class="cls-1" d="M35.13,170.88c-3.7-1.06-6.36-3.24-6.39-7.29A23,23,0,0,1,30.1,157,2.09,2.09,0,0,1,33,155.71a2.29,2.29,0,0,1,1.68,2.72c-.19,1.25-.63,2.47-.87,3.72-.38,1.9.41,3.3,2,3.66a2.84,2.84,0,0,0,3.29-2.38Q44.43,142.7,49.76,122a2.07,2.07,0,0,0,0-.45c-.47,0-.95-.07-1.43-.07-1.31,0-3-.53-3.83.1s-.85,2.41-1.18,3.7q-3.24,12.5-6.46,25c-.35,1.39-.88,2.55-2.54,2.63-1.86.09-2.91-1.5-2.36-3.65,1.1-4.36,2.25-8.71,3.37-13.06l4.09-15.84c-2-.87-4.08-1.6-6-2.59a30.91,30.91,0,0,1-12-10.84,2.2,2.2,0,0,0-2.17-1.12c-3.95.06-7.9,0-11.85,0-4.32,0-7.37-2.9-7.4-6.91s3.05-7,7.44-7.08c2.83,0,5.66,0,9.08,0-.6-.77-.85-1.35-1.28-1.58-4.53-2.43-6.06-6.07-4.57-10.84a2.12,2.12,0,0,0-.33-1.73,32.42,32.42,0,0,1,2-44.17c.91-.89,1.9-1.7,2.93-2.62-.9-1-1.61-1.65-2.25-2.4a5.61,5.61,0,0,1,.29-8.08c3.15-3.22,6.35-6.4,9.56-9.56,2.58-2.54,5.79-2.57,8.46-.1a20.26,20.26,0,0,1,1.69,2C34.8,11,36.29,9.53,37.84,8.12a32.15,32.15,0,0,1,42.66,0c1.36,1.24,2.7,2.5,4,3.82,2.46,2.57,2.47,5.62,0,8.15-3.27,3.35-6.6,6.62-9.91,9.93Q50.89,53.63,27.23,77.31a6.7,6.7,0,0,0-.91,1.88,6.2,6.2,0,0,0,2,.71c6,.06,12,0,18,0h1.9c0-1.56,0-3,0-4.4,0-4.15,2.27-6.42,6.4-6.43q14.77,0,29.54,0a6.11,6.11,0,0,1,1.65.2,2.25,2.25,0,0,1,1.75,2.5,2.29,2.29,0,0,1-2.09,2.24,9.19,9.19,0,0,1-1.66.06c-9.52,0-19,0-28.55,0-1.63,0-2.12.51-2.06,2.1.15,4.26-.61,3.74,3.7,3.75q21.12,0,42.23,0c2.19,0,2.19,0,2.19-2.19,0-3.58,0-3.58-3.6-3.63-2.13,0-3.24-.89-3.22-2.51s1.17-2.5,3.29-2.48a22.1,22.1,0,0,1,4.31.26,5.19,5.19,0,0,1,4.18,5c.08,1.77,0,3.55,0,5.48,1.39.07,2.66.07,3.91.2A5.15,5.15,0,0,1,115,84.81c.71,10.23-1.82,19.39-9.14,26.91a31.55,31.55,0,0,1-12.1,7.77l-2,.75c1,3.86,2,7.66,2.94,11.46,1.53,5.92,3.05,11.83,4.63,17.74a3.82,3.82,0,0,0,1.14,1.89c3.53,2.73,5.15,6.29,4.35,10.67s-3.58,7.28-7.94,8.54c-.31.09-.61.23-.92.34H92.56c-.68-.23-1.36-.45-2-.69-5.06-1.76-8.29-7.76-6.6-12.77a8.33,8.33,0,0,0,.07-5.31c-.29-1-.64-1.33-1.68-1.33q-16.75.06-33.52,0a1.43,1.43,0,0,0-1.66,1.33c-.91,3.72-2.06,7.39-2.82,11.13s-2.73,6.46-6.51,7.64ZM81.32,16c-1.39-1.43-2.6-2.81-3.94-4-10.13-9.29-26.2-9.53-36.16-.11Q27.4,25,14.33,38.78c-8.91,9.42-9,25.18-.64,35.06a1.92,1.92,0,0,0,2.24.67,11.7,11.7,0,0,1,4.89-.08,2.68,2.68,0,0,0,3-.81Q51.93,45.45,80.08,17.34C80.47,17,80.84,16.54,81.32,16ZM65.42,100.8c13.46,0,26.93,0,40.39,0a2.06,2.06,0,0,0,2.28-1.55,33.7,33.7,0,0,0,2-12.26c0-1.73-.49-2.13-2.16-2.12-14.07.06-28.15,0-42.23,0q-18.62,0-37.22,0a2.58,2.58,0,0,0-2.6,1.44A13.6,13.6,0,0,1,22.1,90c-.75.54-1.14.94-.93,1.81.6,2.47,1.22,4.94,1.81,7.42.3,1.3,1,1.64,2.38,1.64C38.71,100.78,52.06,100.8,65.42,100.8ZM104.2,106H26.94c.25.34.36.53.5.69A27.18,27.18,0,0,0,49,116.43c10.74,0,21.48,0,32.22,0a37.89,37.89,0,0,0,7.29-.67A26.42,26.42,0,0,0,104.2,106ZM79.57,135.2c-1.14-4.42-2.24-8.71-3.4-13a1.34,1.34,0,0,0-1-.74c-6.39,0-12.78,0-19.17,0a1.49,1.49,0,0,0-1.1.86c-1.15,4.23-2.22,8.47-3.35,12.85ZM48.84,145.64H82.28a33.67,33.67,0,0,1-.94-3.71c-.19-1.35-.84-1.65-2.12-1.64-9.12.05-18.24,0-27.37,0-.53,0-1.07.06-1.67.09ZM94,149.16q-3.6-13.9-7.25-28l-5.53.36Q85,136.26,88.75,150.6Zm5.94,10.89a5.7,5.7,0,0,0-11.4.18,5.7,5.7,0,1,0,11.4-.18ZM29.49,16c-.24-.26-.49-.55-.76-.82-1.55-1.57-1.55-1.56-3.11,0C24.8,16,24,16.8,23.15,17.62L16.2,24.51l2.28,2.41ZM18.17,100.79c-.37-1.2-.61-2.17-1-3.08-.16-.37-.62-.85-.95-.86-3.1-.06-6.21-.08-9.31,0A2,2,0,0,0,7,100.78C10.65,100.81,14.3,100.79,18.17,100.79Zm.28-21.74A3.38,3.38,0,1,0,22,82.31,3.41,3.41,0,0,0,18.45,79.05Z"/><path class="cls-1" d="M93.9,64.45c-2.37,0-3.65-2.11-2.5-3.68,1.56-2.11,1.19-3.72-.39-5.62a7.76,7.76,0,0,1,.24-9.83c1.14-1.34,2.44-1.61,3.64-.75s1.33,2.16.39,3.66c-1.23,2-1.17,2.84.35,4.77,2.58,3.26,2.58,7.48-.08,10.34A7.06,7.06,0,0,1,93.9,64.45Z"/><path class="cls-1" d="M81.62,64.44c-2.38,0-3.71-2.06-2.56-3.62,1.61-2.19,1.14-3.83-.45-5.77A7.74,7.74,0,0,1,79,45.23c1.14-1.29,2.49-1.51,3.66-.59s1.21,2.16.33,3.56c-1.28,2-1.22,2.84.4,4.89a7.8,7.8,0,0,1-.14,10.22A7.32,7.32,0,0,1,81.62,64.44Z"/><path class="cls-1" d="M68.83,43.73c.78.6,1.72,1,2,1.67a2.85,2.85,0,0,1-.07,2.44c-1.49,2-1.11,3.67.41,5.51A7.71,7.71,0,0,1,71,63.29c-1.1,1.27-2.54,1.53-3.66.66s-1.22-2.18-.38-3.56c1.34-2.2,1.3-2.77-.35-4.89a7.88,7.88,0,0,1,.08-10.22A13.18,13.18,0,0,1,68.83,43.73Z"/></g></g></svg>