<svg xmlns="http://www.w3.org/2000/svg" viewBox="0 0 154.84 154.73"><defs><style>.cls-1{fill:#a8886b;}</style></defs><g id="Capa_2" data-name="Capa 2"><g id="Capa_1-2" data-name="Capa 1"><path class="cls-1" d="M144.41,77.38c1.69,0,3.18,0,4.68,0,1.86,0,2.53.62,3.08,2.41a55,55,0,0,1,2.57,20c-.15,2.26-.52,2.89-2.84,3.51-.55,5.41-1.12,10.85-1.66,16.29q-1.63,16.26-3.25,32.53a2.58,2.58,0,0,1-2.86,2.61q-15.24,0-30.46,0c-1.72,0-2.62-.92-2.8-2.68-.35-3.35-.69-6.7-1.25-10.07-.43,3.29-.85,6.58-1.28,9.86-.28,2.16-1.09,2.9-3.26,2.9H18.69c-2.18,0-3-.73-3.26-2.89q-3.55-28.37-7.09-56.72-1.39-11-2.83-22a2.12,2.12,0,0,0-.88-1.46c-3-1.56-4.69-4-4.6-7.33a7.5,7.5,0,0,1,5-7.05A2.12,2.12,0,0,0,5.38,57a23,23,0,0,1-.14-3.86,9.05,9.05,0,0,1,5.39-7.31,4,4,0,0,0,1.66-1.66c1.72-3.44,4.41-5.41,8.27-5.44a8.55,8.55,0,0,1,8.28,5.35A3.32,3.32,0,0,0,30.75,46a19.71,19.71,0,0,1,2.89,1.75C35,45.94,38.37,46.2,38.51,43c-1-.11-2-.14-3-.34a8.59,8.59,0,0,1-6.78-6.19,8.87,8.87,0,0,1,2.17-8.95,4.5,4.5,0,0,0,1-2.31c.42-3.86,2.21-6.71,5.91-8.1s6.93-.48,9.76,2.22a3,3,0,0,0,1.77.76c3.88.28,6.81,2,8.29,5.65a8.72,8.72,0,0,1-2.06,9.93s-.1.07-.11.11a42.63,42.63,0,0,0-1.74,6.34c-.12,1,.85,2.13,1.36,3.18.07.16.34.24.52.34l3.64,2c1.13-.61,2.35-1.25,3.54-1.93a2.34,2.34,0,0,0,.77-.73c1.1-1.67,2.18-3.36,3.21-4.94-.34-1.73-.7-3.65-1.14-5.55a2.67,2.67,0,0,0-.77-1.27A9,9,0,0,1,71,17.35a3,3,0,0,0,1.74-.8,9.09,9.09,0,0,1,15.61,6.18,3.26,3.26,0,0,0,.81,1.9c2.58,2.77,3.45,5.95,2.2,9.51A8.16,8.16,0,0,1,83.85,40c-2,.12-2.86,1.42-4,2.3.12,3.47,3.49,3.62,5.11,5.33,1.36-.73,2.6-1.34,3.78-2.06a2.73,2.73,0,0,0,.9-1.2,9,9,0,0,1,16.81,0,2.33,2.33,0,0,0,.93,1.17c5.1,2.6,6.58,5.33,5.86,11.16,1.09,0,2.15,0,3.22,0a7.7,7.7,0,0,1,7.18,6.1,7.51,7.51,0,0,1-3.79,8.31,2.51,2.51,0,0,0-1.67,2.39c0,1.22-.28,2.43-.44,3.73h11.24V75.6c0-6.77,0-13.53,0-20.3a8,8,0,0,1,.75-3.22c2.23-4.64,4.61-9.21,6.87-13.84A3.32,3.32,0,0,1,140,36.1c3,.08,5.91,0,8.87,0s3.93,1.62,2.83,4.2c-2.24,5.28-4.52,10.54-6.77,15.82a4.12,4.12,0,0,0-.47,1.52C144.4,64.16,144.41,70.65,144.41,77.38Zm-61.9,31a20.63,20.63,0,1,0-20.64,20.57A20.64,20.64,0,0,0,82.51,108.37ZM26,72.29c1.61,25.84,3.21,51.5,4.82,77.14h7.79c0-.52,0-.89,0-1.27-.3-9.71-.59-19.43-.93-29.14a17.17,17.17,0,0,0-.57-3.62,26.91,26.91,0,0,1-.72-10.53A40.19,40.19,0,0,0,37,98.51c-.13-7.36-.41-14.71-.65-22.06,0-1.38-.13-2.75-.2-4.16Zm67,77.2q2.42-38.63,4.82-77.16H87.6c-.28,8.8-.6,17.49-.83,26.18,0,1.64.33,3.29.41,4.94a66.89,66.89,0,0,1,.2,8c-.17,2.6-1.09,5.15-1.23,7.75-.35,6.38-.49,12.77-.63,19.15-.09,3.69,0,7.37,0,11.14ZM10.66,72.31q4.85,38.67,9.65,77.12h5.3C24,123.65,22.39,98,20.79,72.31ZM62,61.91H9.15c-.48,0-1,0-1.45,0a2.57,2.57,0,0,0,.06,5.13c.38,0,.76,0,1.13,0H114.94a7.66,7.66,0,0,0,1.44,0,2.56,2.56,0,0,0-.06-5.08,9.58,9.58,0,0,0-1.61,0Zm83.23,55.89c.5-5,1-9.72,1.46-14.53H111.17c.25,2.52.52,4.92.69,7.33.07,1,.45,1.44,1.51,1.62,7.13,1.21,14.25,2.51,21.38,3.76C138.17,116.59,141.6,117.17,145.24,117.8ZM106,103.3c-2.33-.65-2.7-1.26-2.85-3.51a54.91,54.91,0,0,1,2.56-20c.57-1.86,1.24-2.43,3.21-2.45h3.57c.22-1.78.42-3.4.64-5.1H103q-2.4,38.61-4.82,77.2h5.23c0-.28.1-.49.13-.7,1-7.55,1.93-15.1,2.84-22.66a66.89,66.89,0,0,0,.87-9.75C107.11,112,106.42,107.73,106,103.3Zm37.23,34.86L114.14,133c.57,5.65,1.11,11,1.65,16.4h26.29C142.46,145.64,142.82,142,143.2,138.16ZM112.57,117.3c.32,3.19.67,6.06.86,9,.07,1.13.47,1.55,1.58,1.74,6.5,1.1,13,2.28,19.49,3.42,3,.54,6.08,1,9.22,1.57.34-3.43.67-6.67,1-10ZM41.33,21.61a3.88,3.88,0,0,0-4,4.78c.5,2.39.33,2.8-1.74,4a3.85,3.85,0,0,0,3,7.06c2.15-.57,2.81-.29,3.94,1.63A3.77,3.77,0,0,0,47.26,41a3.68,3.68,0,0,0,2.34-4.68,3,3,0,0,1,1.64-3.85A3.71,3.71,0,0,0,53,27.78a3.79,3.79,0,0,0-4.56-2.34c-2.33.47-2.69.31-4-1.85A3.71,3.71,0,0,0,41.33,21.61ZM82.68,35a3.88,3.88,0,0,0,3.88-2.77,3.69,3.69,0,0,0-1.83-4.38C83.19,27,82.46,26,82.87,24.2c.57-2.46-.27-4.29-2.22-5s-3.68,0-4.93,2.17a2.77,2.77,0,0,1-3.37,1.45c-2.5-.6-4.25.2-5,2.22s0,3.81,2.28,5a2.71,2.71,0,0,1,1.54,3.33c-.57,2.57.15,4.26,2.13,5.06s3.75,0,5-2.19a2.59,2.59,0,0,1,3.08-1.43C81.87,34.87,82.35,34.93,82.68,35Zm66.81,58H108.43v5h41.06Zm-.69-5.33-1.25-5H110.31c-.41,1.67-.82,3.31-1.24,5Zm-3.16-46.34a29.94,29.94,0,0,1-3,0A2.21,2.21,0,0,0,140,42.8c-1.68,3.59-3.55,7.09-5.26,10.67a6.68,6.68,0,0,0-.66,2.73c-.06,5.31,0,10.62,0,15.93v5.14h5.16c0-6.1.05-12.1,0-18.09a13.06,13.06,0,0,1,1.19-5.74C142.2,49.51,143.84,45.5,145.64,41.28ZM20.58,56.75h7.71c2,0,2.85-1,2.62-3a3.94,3.94,0,0,0-3.51-3.43c-2.15-.31-2.62-.78-2.93-2.9a3.86,3.86,0,0,0-7.69-.08c-.35,2.26-.73,2.64-3,3a3.87,3.87,0,0,0-3.29,4.93,1.83,1.83,0,0,0,2.06,1.53C15.21,56.68,17.9,56.75,20.58,56.75Zm51.45,0h7.88c1.88,0,2.67-.83,2.59-2.72a3.91,3.91,0,0,0-3.41-3.69C76.7,50,76.46,49.7,76,47.22a3.86,3.86,0,0,0-7.66,0c-.43,2.51-.55,2.63-3.23,3.13a3.88,3.88,0,0,0-3,5.09A1.69,1.69,0,0,0,64,56.77C66.67,56.7,69.35,56.75,72,56.75Zm26,0h7.72c1.84,0,2.56-.74,2.56-2.59A3.92,3.92,0,0,0,105,50.34c-2.62-.47-2.76-.6-3.21-3.14a3.86,3.86,0,0,0-7.66,0c-.4,2.43-.68,2.71-3.08,3.09a3.87,3.87,0,0,0-3.21,5,1.76,1.76,0,0,0,2,1.47C92.54,56.69,95.27,56.75,98,56.75Zm-55,69.8c.23,7.59.47,15.25.7,22.91h7.82c0-5.66,0-11.23,0-16.79a1.38,1.38,0,0,0-.56-1C48.41,130,45.81,128.33,43.05,126.55Zm37,23c.23-7.79.45-15.44.68-23.09l-8.41,5.83v17.26ZM56.84,133.9v15.54H67V133.9Zm-7-87.85-7,.34a.89.89,0,0,0-.17.41c0,2.31-1.11,3.44-3.52,3.64a3.57,3.57,0,0,0-3,4c.15,1.43.44,2.45,2.45,2.4,5.19-.12,10.39,0,15.59,0,1.82,0,2.56-.76,2.55-2.6,0-1.65-1-3.39-2.69-3.56-2.7-.28-3.88-1.63-4-4.18A1,1,0,0,0,49.85,46.05ZM41.34,72.27,42,91.91a28,28,0,0,1,9.13-7,1,1,0,0,0,.45-.73c0-3.94,0-7.89,0-11.89Zm30.86,0c0,2.85.17,5.63,0,8.39s.2,4.73,3.12,5.66A7.43,7.43,0,0,1,77.65,88c1.37,1.16,2.68,2.39,4.17,3.74.2-6.57.4-13,.6-19.4ZM56.8,82.73H66.92V72.3H56.8Z"/><path class="cls-1" d="M30,12.64a9.16,9.16,0,0,1-2.66,6.53A3.08,3.08,0,0,0,26.62,21c-.21,4-2,6.9-5.73,8.38s-7,.58-9.92-2.16a3,3,0,0,0-1.78-.71,9.22,9.22,0,0,1-8.5-5.61,9.1,9.1,0,0,1,2.06-10A3.25,3.25,0,0,0,3.6,9C3.91,5.05,5.69,2.12,9.44.68s7-.53,9.89,2.24a3,3,0,0,0,1.79.71A9.06,9.06,0,0,1,30,12.64ZM5.16,17.19A3.89,3.89,0,0,0,10.25,21c2-.55,2.79-.24,3.83,1.56,1.14,2,3,2.72,4.86,2a3.72,3.72,0,0,0,2.29-4.72,2.91,2.91,0,0,1,1.53-3.75,3.73,3.73,0,0,0,1.83-4.79c-.74-1.9-2.52-2.75-4.74-2.27-2,.42-2.69.12-3.69-1.62-1.13-2-3-2.72-4.86-2A3.8,3.8,0,0,0,9,10.16c.46,2.1.21,2.69-1.69,3.78A3.92,3.92,0,0,0,5.16,17.19Z"/><path class="cls-1" d="M97.67,25.52a20.21,20.21,0,0,0-1.43-2.58c-2.3-3.07-2.83-6.35-1.11-9.8a8.62,8.62,0,0,1,8.49-5A3.27,3.27,0,0,0,106,7.32a8.54,8.54,0,0,1,9.77-1.17,8.6,8.6,0,0,1,5,8.49,3.3,3.3,0,0,0,.82,2.42,8.5,8.5,0,0,1,1.24,9.62c-1.65,3.49-4.58,5.07-8.39,5.23a4.15,4.15,0,0,0-2.23.79c-3,2.35-6.32,2.92-9.8,1.28a8.76,8.76,0,0,1-5.17-8.22Zm4.79.07a4,4,0,0,0,2.68,4,3.78,3.78,0,0,0,4.44-1.74c.89-1.39,1.93-2,3.62-1.48,2.29.74,4.16,0,5.06-1.85s.29-3.77-1.73-5.09a2.74,2.74,0,0,1-1.23-3.57c.78-2.28.09-4.16-1.76-5.09s-3.8-.37-5.11,1.63a2.84,2.84,0,0,1-3.73,1.23,5,5,0,0,0-2.34-.22,3.66,3.66,0,0,0-3,3.19,3.81,3.81,0,0,0,2,3.92c1.79,1.16,2.06,1.9,1.48,3.72C102.63,24.8,102.51,25.37,102.46,25.59Z"/></g></g></svg>