<svg xmlns="http://www.w3.org/2000/svg" viewBox="0 0 143.96 131.81"><defs><style>.cls-1{fill:#a8886b;}</style></defs><g id="Capa_2" data-name="Capa 2"><g id="Capa_1-2" data-name="Capa 1"><path class="cls-1" d="M97.91,88.67c-.6-3.62-1.17-7.15-1.75-10.69A9.21,9.21,0,0,1,96,77a2.39,2.39,0,0,1,4.77-.38c.63,3.59,1.21,7.19,1.81,10.78.08.44.18.87.27,1.33H108c0-1.49,0-2.93,0-4.36,0-1.87.91-2.72,2.78-2.77a3.38,3.38,0,0,0,.45,0c3.58-.38,7.32,1,10.71-1.49,2.94-2.13,6.24-3.77,9.21-5.86,2.81-2,5.62-3.09,8.9-1.42a6.68,6.68,0,0,1,3.9,6.13c.07,8,0,16,0,24a2.65,2.65,0,0,1-1.55,2.52c-.36.2-.81.67-.81,1-.05,6.83,0,13.67,0,20.61l2.33.14v4.62H.12v-4.64H2.31V110.42c-2.24-.35-2.32-2.08-2.31-4Q.08,93.14,0,79.87c0-3.18,1.14-5.66,4-7.13s5.57-.71,8.17,1c3.93,2.56,7.92,5,11.92,7.47a3.25,3.25,0,0,0,1.56.35c2.49,0,5,0,7.49,0,2,0,2.81.88,2.84,2.85,0,1.35,0,2.69,0,4,0,0,.05.08.13.21h5c.47-2.81.95-5.65,1.43-8.49.2-1.18.38-2.36.6-3.54A2.43,2.43,0,0,1,46,74.4a2.47,2.47,0,0,1,1.91,3.07c-.52,3.15-1.07,6.3-1.6,9.45-.09.53-.14,1.08-.23,1.73h7q.87-6,1.75-12A7.14,7.14,0,0,1,59,71l.13-.07c8.1-4.15,8.1-4.15,17.41-3.77a1.47,1.47,0,0,1,.6,0C80.49,69,84,70.63,87.18,72.69c1.8,1.16,1.91,3.5,2.19,5.55.47,3.46,1,6.91,1.48,10.43ZM43.31,103.2v23.85H64.47c-.57-4.47-1.22-8.85-1.63-13.26a5.71,5.71,0,0,0-2.07-4.09,8.09,8.09,0,0,1-3.21-6.5Zm57.4,0H86.4a8.09,8.09,0,0,1-2.75,6c-.84.82-2,1.72-2.19,2.72-.8,5-1.31,10-1.94,15h21.19Zm-67-5h76.57V93.62H33.68ZM31.15,86.35c-1.85,0-3.55-.08-5.23,0A7.49,7.49,0,0,1,21.14,85c-4-2.58-8-5.06-12-7.58-1-.61-2.11-1.17-3-.32a4.09,4.09,0,0,0-1.22,2.65c-.09,8.39,0,16.79-.08,25.18A1.47,1.47,0,0,0,6,106.63c3.38,1.07,6.69,2.34,10.09,3.31a4.5,4.5,0,0,1,3.46,3.61c1.16,4.53,2.54,9,3.83,13.51H27.9c-.13-.51-.21-.94-.34-1.37-1.71-5.73-3.4-11.47-5.2-17.18a4.19,4.19,0,0,0-1.64-2.1c-3.11-2-6.3-3.85-9.48-5.73A2.87,2.87,0,0,1,9.61,98c0-3.8,0-7.6,0-11.39,0-2.21,1.69-3.27,3.68-2.32,2.65,1.26,5.27,2.61,7.91,3.92a2.87,2.87,0,0,0,1.09.46c2.93,0,5.86,0,8.84,0Zm94.92,40.58.28-.12c-.09-.43-.17-.86-.28-1.29-1.15-4.65-2.31-9.29-3.45-13.93-.53-2.12-.16-2.86,1.87-3.74,4.48-1.93,9-3.87,13.47-5.75a1.59,1.59,0,0,0,1.22-1.72c-.05-6.89,0-13.78,0-20.67,0-1.12-.18-2.29-1.32-2.58a4.82,4.82,0,0,0-2.91.34,23.6,23.6,0,0,0-2.67,1.89c-3.36,2.06-6.72,4.12-10.15,6a7.84,7.84,0,0,1-3.22.9c-2,.14-4,0-6.12,0v2.37c4.78,0,9.49.75,13.67-2.25a24.62,24.62,0,0,1,4-2c2.25-1.09,3.89-.09,3.91,2.4,0,2.7-.08,5.4,0,8.09a3.71,3.71,0,0,1-2,3.64c-5,3.07-10,6.22-15,9.34-.45.28-.88.58-1.35.9C119.4,114.94,122.74,120.94,126.07,126.93ZM82,103.23H62.08a14.59,14.59,0,0,0,1.24,2.19c.73.88,1.72,1.56,2.38,2.48A7.8,7.8,0,0,1,67.22,111c.79,5.33,1.41,10.67,2.09,16.07h5.36c.51-4.11,1.18-8.15,1.48-12.22.27-3.68,1.1-6.92,4.29-9.21C81.07,105.16,81.36,104.21,82,103.23ZM62.39,88.7c0-3.07,0-6,0-8.94,0-2.16.84-3,3-3,4.19,0,8.39,0,12.58,0,3,0,3.62.63,3.62,3.57v8.34H86c-.53-3.74-1-7.41-1.63-11a4.06,4.06,0,0,0-1.7-2.39c-3.83-2.51-8-4-12.68-3.3-.49.07-1,0-1.5,0a3.73,3.73,0,0,0-1.29.29c-2,1-4,1.94-6,3a2.82,2.82,0,0,0-1.42,1.58c-.69,3.9-1.21,7.83-1.8,11.83ZM14.41,90c0,2.36-.07,4.16.05,6a2.33,2.33,0,0,0,.9,1.6c2.91,1.84,5.86,3.63,8.85,5.32A4.83,4.83,0,0,1,26.69,106c.55,2.12,1.24,4.21,1.87,6.31l.13-.06V93.37A17.75,17.75,0,0,1,14.41,90Zm122.26,37.12V107.84c-2.87,1.24-5.62,2.39-8.32,3.62a1.27,1.27,0,0,0-.53,1.11c1.16,4.83,2.39,9.65,3.61,14.5Zm-118.25,0c-1.17-4.07-2.27-7.94-3.41-11.8a1.38,1.38,0,0,0-.71-.82c-2.29-.81-4.6-1.56-7-2.35v15Zm19.88,0v-23.8H33.68v23.8Zm72,0v-23.8h-4.61v23.8Zm5-23.49c4.76-3,9.32-5.81,13.86-8.67a1,1,0,0,0,.45-.69c0-1.25,0-2.51,0-4.28-4.47,3.54-9.27,4.16-14.33,3.5ZM76.72,81.66H67.31v7h9.41Zm43.92,45.4-5.18-9.32-.3.09v9.23Z"/><path class="cls-1" d="M112.77,9.6H122c4.58,0,7.59,3,7.6,7.62s0,8.89,0,13.33a7.54,7.54,0,0,1-4.06,7.14,1.7,1.7,0,0,0-.72,1.23c-.07,2.1,0,4.2,0,6.29,0,2.44-2,3.5-4,2.16-4.14-2.7-8.21-5.5-12.36-8.17a5.56,5.56,0,0,0-2.61-.78c-2-.12-4,0-6,0-4.83,0-6.76-1.28-8.61-5.81-.38.22-.76.41-1.12.65L83.34,37.7c-.92.62-2,1.1-2.89.3a4.17,4.17,0,0,1-1.21-2.51c-.18-2,0-4.09-.1-6.13a1.84,1.84,0,0,0-.8-1.33,7.29,7.29,0,0,1-4-6.74c0-4.64,0-9.29,0-13.93A7.15,7.15,0,0,1,81.81,0C89.55,0,97.29,0,105,0c4.76,0,7.71,3,7.74,7.78Zm0,4.81c0,2.37,0,4.56,0,6.75,0,4.59-3,7.6-7.6,7.63-2.55,0-5.1,0-7.64,0a1.89,1.89,0,0,0-1.46.68,2.89,2.89,0,0,0,2.71,4.08,30.58,30.58,0,0,0,4.49,0,12.81,12.81,0,0,1,10.08,3.08c2,1.6,4.26,2.88,6.62,4.44,0-1.73,0-3.17,0-4.6,0-1.87.62-2.57,2.5-2.89a2.39,2.39,0,0,0,2.28-2.51c0-4.75,0-9.49,0-14.24a2.28,2.28,0,0,0-2.35-2.41C119.25,14.37,116.11,14.41,112.77,14.41ZM108,9.6c0-.83,0-1.48,0-2.12a2.43,2.43,0,0,0-2.71-2.67q-11.69,0-23.36,0a2.4,2.4,0,0,0-2.7,2.68q0,6.9,0,13.78A2.43,2.43,0,0,0,81.56,24c1.74.3,2.39,1,2.42,2.82,0,1.47,0,2.94,0,4.69,2.24-1.5,4.2-2.86,6.22-4.12a2,2,0,0,0,1-1.95c-.06-2.74,0-5.49,0-8.23A7.21,7.21,0,0,1,98.8,9.6ZM96,24c3.33,0,6.46,0,9.59,0a2.11,2.11,0,0,0,2.3-1.93c.15-2.51,0-5,0-7.64-3.28,0-6.42,0-9.55,0A2.27,2.27,0,0,0,96,16.79C95.94,19.12,96,21.46,96,24Z"/><path class="cls-1" d="M12,36.06c-4.89-.72-7.2-3.37-7.2-8.11,0-4.39,0-8.78,0-13.18a7.18,7.18,0,0,1,7.5-7.56q14.09,0,28.17,0A7.17,7.17,0,0,1,48,14.77q0,6.81,0,13.63C48,33,45,36,40.36,36c-3.2,0-6.4,0-9.59,0a4.49,4.49,0,0,0-2.2.66c-4.1,2.66-8.16,5.39-12.23,8.11-.95.63-1.9,1.12-3.05.49A2.8,2.8,0,0,1,12,42.45C12,40.35,12,38.26,12,36.06Zm4.79,2.56c.64-.39,1.06-.63,1.47-.9,2.87-1.9,5.7-3.86,8.62-5.69a5.44,5.44,0,0,1,2.63-.81c3.59-.09,7.19,0,10.79,0,2,0,2.86-.87,2.87-2.81q0-6.75,0-13.49c0-2-.89-2.87-3-2.88H12.51c-2,0-2.88.88-2.89,3,0,3.89.07,7.79,0,11.68-.09,3.53.23,4.81,4.47,4.57,1.84-.1,2.71.9,2.74,2.78C16.83,35.44,16.81,36.88,16.81,38.62Z"/><path class="cls-1" d="M134.37,50.38A9.59,9.59,0,1,1,124.76,60,9.6,9.6,0,0,1,134.37,50.38Zm-.05,14.37A4.79,4.79,0,1,0,129.56,60,4.8,4.8,0,0,0,134.32,64.75Z"/><path class="cls-1" d="M81.58,55.19A9.6,9.6,0,1,1,72,45.58,9.61,9.61,0,0,1,81.58,55.19Zm-4.81-.1A4.79,4.79,0,1,0,72.1,60,4.8,4.8,0,0,0,76.77,55.09Z"/><path class="cls-1" d="M9.84,50.38A9.59,9.59,0,1,1,0,59.78,9.6,9.6,0,0,1,9.84,50.38Zm-5,9.6a4.79,4.79,0,1,0,4.73-4.8A4.79,4.79,0,0,0,4.83,60Z"/><path class="cls-1" d="M38.34,19.27v4.62H33.7V19.27Z"/><path class="cls-1" d="M28.74,19.3v4.61H24.13V19.3Z"/><path class="cls-1" d="M19.15,19.27v4.61H14.51V19.27Z"/></g></g></svg>