<svg xmlns="http://www.w3.org/2000/svg" viewBox="0 0 140.21 140.63"><defs><style>.cls-1{fill:#a8886b;}</style></defs><g id="Capa_2" data-name="Capa 2"><g id="Capa_1-2" data-name="Capa 1"><path class="cls-1" d="M121.42,133.67H18.81c-.43,3.42-2,6.08-5.51,6.66a26.28,26.28,0,0,1-7.82,0A6.6,6.6,0,0,1,0,133.69c0-1.6,0-3.21,0-4.81a7,7,0,0,1,5.42-6.75A5.8,5.8,0,0,0,7.71,121c5.62-5,11.2-10.09,16.79-15.14l1-.9A16.76,16.76,0,0,1,19,94.25a17,17,0,0,1,2.79-12.32A2.14,2.14,0,0,0,22,79.71Q16.28,65.16,10.62,50.56a1.64,1.64,0,0,0-1.87-1.28A13.67,13.67,0,0,1,5.13,49,6.8,6.8,0,0,1,.06,42.76C0,41.15,0,39.54.06,37.94a6.84,6.84,0,0,1,7.62-6.51Q19.61,33,31.51,34.79c3.88.58,6.23,4,5.88,8.11a7,7,0,0,1-7.09,6.4c-1.85,0-3.7,0-5.69,0,.12.43.17.78.3,1.11,3.06,7.82,6.14,15.63,9.18,23.46A1.48,1.48,0,0,0,35.62,75c6.66.36,13.31.82,20,1.17a3.09,3.09,0,0,0,2.05-.69Q75.32,59.61,93,43.65a1.55,1.55,0,0,0,.52-2c-1.29-3.4-2.46-6.85-3.75-10.26a2.54,2.54,0,0,0-1.18-1.26,7.19,7.19,0,0,1-4.29-8.08,7,7,0,0,1,7.09-5.72c5.21,0,10.42,0,15.62,0,4.64,0,7.5-2.91,7.55-7.59a15.54,15.54,0,0,1,.29-3.61A6.91,6.91,0,0,1,122.18,0,7.06,7.06,0,0,1,128.5,6.6a22.51,22.51,0,0,1-6.44,17.92,20.15,20.15,0,0,1-13.87,6.09c-1.36.09-2.72,0-4.32,0,.2.66.35,1.19.53,1.7,3.57,10,7.17,20,10.7,30a2.74,2.74,0,0,0,2.15,2,28.15,28.15,0,0,1,15.3,43.58,2.34,2.34,0,0,0-.37,2.49c1.41,3.72,2.67,7.5,4.06,11.22a4.94,4.94,0,0,0,1.31,1.83,7.19,7.19,0,0,1,2.63,5.46c0,1.61,0,3.21,0,4.82a7,7,0,0,1-6.92,6.87c-1.26,0-2.53,0-3.8,0C124.7,140.62,122.16,138.44,121.42,133.67Zm-.83-15.73c-3.34.59-6.42,1.51-9.53,1.59-11,.3-19.49-4.36-25.36-13.7-.39-.61-.68-1-1.55-1-10.58.69-21.16,1.32-31.74,2-2,.12-3.95.28-6.17.43l2,3.72c.81-.42,1.4-.76,2-1a2.32,2.32,0,0,1,3.25,1,2.25,2.25,0,0,1-1,3.11q-4.06,2.28-8.21,4.43a2.22,2.22,0,0,1-3.12-1,2.28,2.28,0,0,1,1-3.13c.65-.4,1.32-.75,2-1.16l-2.39-4.37L19.9,128.9H121.17c.54-1.36,1-2.59,1.51-3.84a1.78,1.78,0,0,0,0-1.07C122,121.88,121.25,119.79,120.59,117.94Zm-7.18-20.11c-1.45-4-2.9-7.71-4.06-11.46a3,3,0,0,0-3.16-2.29l-23-1.46-46.76-2.9c-5.07-.32-9,1.55-11.49,6.08a11.7,11.7,0,0,0,13.54,17c-.51-1-1.07-1.86-1.5-2.83a2.06,2.06,0,0,0-2.18-1.41,6.9,6.9,0,0,1-6.71-6.74,7,7,0,0,1,12.4-4.61,6.75,6.75,0,0,1,.53,8,1.88,1.88,0,0,0-.09,2.32A38.51,38.51,0,0,1,43,101.39a2,2,0,0,0,2.24,1.3c8.1-.55,16.21-1,24.32-1.53q20.25-1.27,40.49-2.58A22.64,22.64,0,0,0,113.41,97.83ZM94.49,30.64Q110.8,76.5,127,121.92h4.32c-.17-.56-.29-1-.45-1.47q-6.66-18.8-13.34-37.59Q114,72.92,110.4,63q-5.57-15.55-11.14-31.11c-.17-.47-.61-1.12-1-1.17A31,31,0,0,0,94.49,30.64ZM118.84,113c-1.31-3.66-2.6-7.24-3.89-10.86-4,1.6-8.18,1.19-12.22,1.54s-8.07.54-12.21.8C95.93,113.39,108.69,117.68,118.84,113Zm10.89-9.48c7.6-11.73,2-29.65-12-34C121.73,80.91,125.71,92.18,129.73,103.55ZM99.88,26c2,0,4,0,6,0a17.69,17.69,0,0,0,7.73-1.44c6.79-3,10.93-9.36,10.21-17.77a2.17,2.17,0,0,0-2.24-2.08A2.27,2.27,0,0,0,119.2,6.8a19.84,19.84,0,0,0,0,2c0,7.17-5,12.15-12.24,12.17h-15c-2,0-3.07.8-3.1,2.29,0,1.68,1.08,2.66,3,2.67C94.53,26,97.21,26,99.88,26ZM18.72,44.64h11.1c1.85,0,2.79-.78,2.91-2.34.13-1.75-.61-2.68-2.45-3-2.88-.44-5.77-.85-8.66-1.26-4.67-.66-9.33-1.34-14-2-1.86-.24-2.86.68-2.9,2.55,0,1,0,2,0,3.06,0,2.1.82,2.91,2.91,2.92ZM98.66,56.3,75.57,77.5c3,.18,5.61.29,8.21.53a1.73,1.73,0,0,0,2-1,27.73,27.73,0,0,1,14.36-12l1.48-.59ZM63.33,76.7c1.6.12,2.86.15,4.1.33a3.31,3.31,0,0,0,3-1.09c2.24-2.16,4.57-4.23,6.86-6.34Q86.67,61,96.05,52.32a1.83,1.83,0,0,0,.63-1.38,27.75,27.75,0,0,0-1.14-3.35Zm-37.15.81,3.63-1.76c-3.37-8.61-6.7-17.15-10.07-25.67a1.29,1.29,0,0,0-.87-.73c-1.18-.09-2.37,0-3.73,0Zm-8.59,47.17,18-16.54c-1.65-.26-3.1-.41-4.5-.74A2,2,0,0,0,29,108c-3.8,3.48-7.63,6.92-11.46,10.37l-3.92,3.58Zm85.59-55.74a23.88,23.88,0,0,0-12.83,9.49l16.58,1ZM9.54,126.62c-4.71,0-4.84.13-4.84,4.79,0,4.3.24,4.55,4.51,4.55,4.7,0,4.84-.14,4.84-4.8C14.05,126.86,13.81,126.62,9.54,126.62Zm116.64,4.65c0,4.5.18,4.69,4.65,4.69s4.69-.19,4.69-4.66-.19-4.68-4.66-4.68S126.18,126.8,126.18,131.27ZM37.4,91.58a2.33,2.33,0,1,0-2.27,2.35A2.36,2.36,0,0,0,37.4,91.58Z"/></g></g></svg>