<svg xmlns="http://www.w3.org/2000/svg" viewBox="0 0 143.96 137.58"><defs><style>.cls-1{fill:#a8886b;}</style></defs><g id="Capa_2" data-name="Capa 2"><g id="Capa_1-2" data-name="Capa 1"><path class="cls-1" d="M144,58.92a27,27,0,0,1-3.36.07c-1.25-.12-1.67.41-1.93,1.56C137.49,65.7,136.34,70.86,135,76s-3.77,9.68-8,13.11a16.32,16.32,0,0,1-10.94,3.68c-2.57,0-5.14,0-8,0,.38.49.59.82.85,1.11,4.21,4.65,8.45,9.28,12.64,14a1.73,1.73,0,0,0,1.94.56,14.72,14.72,0,1,1,6.24,28.77,14,14,0,0,1-13.92-4.4,14.13,14.13,0,0,1-3.25-14.35,2,2,0,0,0-.54-2.32c-2.06-2.18-4-4.42-6.14-6.73l3.08-2.85,6.21,6.78,3.08-2.77c-.21-.25-.41-.53-.65-.79Q76.25,64.16,34.86,18.56A3.45,3.45,0,0,0,32,17.31c-5,.06-9.92,0-15,0V13.19c.41,0,.82-.07,1.23-.07,5.39,0,10.78,0,16.16,0a3,3,0,0,1,2,.89C45.92,24.49,55.42,35,65,45.43a3.05,3.05,0,0,0,2,.89c5.53.08,11.06,0,16.59,0a3.54,3.54,0,0,0,3.36-3.43q0-18.06,0-36.13c0-3.65,2.15-6.24,5.48-6.73A6.1,6.1,0,0,1,98.7,3.15a1.77,1.77,0,0,0,1.87,1.05,41.29,41.29,0,0,1,16.28,2.41,36,36,0,0,1,22.88,32.66c0,2.29,0,4.58,0,7H144ZM77.45,59c.27.38.37.58.51.73q12.8,14.1,25.6,28.17a2,2,0,0,0,1.32.58c4.12,0,8.24,0,12.36,0a10.63,10.63,0,0,0,8-3.53,23,23,0,0,0,4-6,67.41,67.41,0,0,0,2.9-9.34c.93-3.46,1.68-7,2.52-10.51A5.54,5.54,0,0,0,134,59q-15.73,0-31.47,0a2.45,2.45,0,0,0-1.5.78,10.53,10.53,0,0,1-15.6-.07c-.28-.29-.64-.69-1-.7C82.21,59,79.94,59,77.45,59Zm58-12.67c2.58-27.54-19-40-35.84-37.7V42.9a3.57,3.57,0,0,0,3.5,3.46h32.34Zm-8.82,65.91a10.53,10.53,0,0,0,.09,21.06,10.53,10.53,0,1,0-.09-21.06Zm-31.3-70c0-.39.06-.8.06-1.21q0-17,0-34a8,8,0,0,0,0-1,1.92,1.92,0,0,0-1.84-1.8,1.89,1.89,0,0,0-2.16,1.4,5.14,5.14,0,0,0-.17,1.52q0,16.86,0,33.71v1.35Zm8.48,12.43h35.88v-4H103.78ZM99.57,52.8a6.31,6.31,0,0,0-6.23-6.43,6.4,6.4,0,0,0-6.4,6.3A6.34,6.34,0,0,0,93.14,59,6.23,6.23,0,0,0,99.57,52.8ZM69.86,50.64c2.78,4,3.08,4.16,7.6,4.16H82.8V50.64Z"/><path class="cls-1" d="M56,92.76H54.4c-4.41,0-8.81-.09-13.21,0-7.47.17-12.75-3.29-16.48-9.53C22.18,79,21.16,74.33,20,69.66c-.8-3.18-1.61-6.35-2.35-9.54-.2-.82-.54-1.18-1.42-1.12-1.11.07-2.24,0-3.46,0V46.36H48.54c-.43-.54-.65-.87-.92-1.16C42,39,36.36,32.77,30.68,26.6a2.9,2.9,0,0,0-1.9-.8c-7.5-.05-15,0-22.49-.06a6.24,6.24,0,0,1-6-8.18,5.94,5.94,0,0,1,5.32-4.37c2.26-.21,4.57,0,6.94,0v4.18H8.05a12.9,12.9,0,0,0-2,.05A2,2,0,0,0,4.25,19.5a2,2,0,0,0,1.94,2,8.8,8.8,0,0,0,1.26,0c7.68,0,15.37,0,23.05,0a2.63,2.63,0,0,1,2.18.92Q66,59.2,99.38,95.91l1.09,1.24L97.39,100c-1.94-2.13-3.78-4.24-5.74-6.25a3.18,3.18,0,0,0-2-.92c-5.11-.08-10.22-.07-15.32,0a2.78,2.78,0,0,0-1.79.79c-4.64,5-9.21,10.11-13.83,15.15a1.73,1.73,0,0,0-.41,2.18c3,7.28,2.12,14.13-3,20.07s-11.69,7.87-19.18,5.84-12.27-7.24-13.75-14.95c-2.7-14.12,11.26-26,24.87-21.2a1.79,1.79,0,0,0,2.35-.6c1.84-2.13,3.77-4.17,5.65-6.26C55.43,93.55,55.62,93.26,56,92.76ZM21.6,59c1.61,6.08,3.07,11.88,4.71,17.63a20.56,20.56,0,0,0,2.26,4.82c2.8,4.7,6.83,7.24,12.49,7.1,5.9-.14,11.81,0,17.71-.07a3.13,3.13,0,0,0,2-.9c4-4.28,7.91-8.64,11.84-13,.28-.3.52-.63.82-1-4.13-4.56-8.24-9-12.3-13.59a2.86,2.86,0,0,0-2.42-1q-17.65,0-35.29,0ZM41,103.84a14.75,14.75,0,1,0,14.71,14.75A14.78,14.78,0,0,0,41,103.84ZM56.25,54.71c-1-1.15-2-2.06-2.75-3.07a2.69,2.69,0,0,0-2.4-1.08c-10.87,0-21.74,0-32.6,0H17v4.13Zm-.85,51.41L79.18,79.94l-2.86-3.12-24,26.42Zm22-17.7h9.51c-1.72-1.89-3.27-3.59-4.85-5.34L77.6,88A2.36,2.36,0,0,0,77.37,88.42Z"/><path class="cls-1" d="M103.28,100.3l2.84,3.1L103,106.23l-2.85-3.1Z"/><path class="cls-1" d="M116.24,16.92v4h-4v-4Z"/><path class="cls-1" d="M120.59,25.19V21.06c1.17,0,2.28,0,3.38,0a1.06,1.06,0,0,1,.73.72c.09,1.1,0,2.22,0,3.38Z"/><path class="cls-1" d="M120.34,122.85a6.32,6.32,0,1,1,12.64-.06,6.39,6.39,0,0,1-6.37,6.32A6.32,6.32,0,0,1,120.34,122.85Zm6.34,2a2.15,2.15,0,0,0,2.07-2.2,2.1,2.1,0,0,0-2.14-2,2.05,2.05,0,0,0-2,2.17A2.12,2.12,0,0,0,126.68,124.88Z"/><path class="cls-1" d="M51.5,118.51a10.54,10.54,0,1,1-10.56-10.46A10.52,10.52,0,0,1,51.5,118.51Zm-10.34-6.24a6.31,6.31,0,1,0,6.12,6.5A6.23,6.23,0,0,0,41.16,112.27Z"/></g></g></svg>