<svg xmlns="http://www.w3.org/2000/svg" viewBox="0 0 140.21 140.19"><defs><style>.cls-1{fill:#a8886b;}</style></defs><g id="Capa_2" data-name="Capa 2"><g id="Capa_1-2" data-name="Capa 1"><path class="cls-1" d="M83.33,77.34a12.35,12.35,0,0,1-9.9,7.77c-1.56.27-2.72-.37-3-1.67a2.16,2.16,0,0,1,2.12-2.62c4.15-.43,7.56-5,7.52-8.85,0-3.74.31-7.49.51-11.62-2.1,1.8-4,3.34-5.79,5-14.14,13.09-22.5,29.19-24.64,48.33-.57,5.16-.12,10.42-.23,15.63-.06,3-.23,6-.49,9A2.1,2.1,0,0,1,47,140.16a2.12,2.12,0,0,1-1.81-2.5c.91-4.2.23-8.4.15-12.6-.51-25.93,9-47.45,28.42-64.63,1.58-1.4,3.23-2.72,4.8-4.11,1.35-1.19,2.8-1.77,4.52-.91a3.7,3.7,0,0,1,2,4c0,.31,0,.63,0,1.23,1.76-2.75,3.4-5.29,5.09-7.92a8.27,8.27,0,0,0-.84-.28,25.87,25.87,0,0,1-11.92-6.76,2.14,2.14,0,0,1-.26-3.08,2.2,2.2,0,0,1,3.19-.18,62.88,62.88,0,0,0,5.54,4c3.67,2.17,7.61,2.31,11.8,1.58,10.29-1.77,20.6-3.41,30.94-4.79,5-.67,7.95-3.45,7.18-9.46L125,30.48c-4.25-1.32-5.26-2.65-5.37-7.09,0-.27,0-.54-.08-1h-5.2c-1.51,0-3,0-4.53,0A3.18,3.18,0,0,1,107,21.05c-2-2.66-4.05-5.34-6.22-7.87-5.15-6-13.59-9.49-21-8.68.35.37.65.68.93,1a2.12,2.12,0,0,1,.07,3,2.27,2.27,0,0,1-3.09.2,19.08,19.08,0,0,0-4.62-2.55c-3.56-1-6.66.18-9.26,2.78L40.39,32.33l-7.48,7.48c-3.41,3.4-4.67,7.42-3.2,12s4.88,7.23,9.58,8c7.8,1.3,14.17-1.24,18.92-7.59A75.73,75.73,0,0,0,69.39,31.43c.58-1.67,1.68-2.31,3-1.83s1.74,1.63,1.17,3.3A78.68,78.68,0,0,1,61,55.92a22.93,22.93,0,0,1-28.78,6c-1.74,2.17-3.54,4.34-5.26,6.58A179.94,179.94,0,0,0,4.68,107c-.16.38-.31.76-.51,1.13a2.17,2.17,0,0,1-2.89,1.09,2.12,2.12,0,0,1-1.07-2.88c1.67-3.77,3.31-7.54,5.13-11.24a171.21,171.21,0,0,1,23-35.5,7.38,7.38,0,0,0,.43-.6,16,16,0,0,1,1-22.33q9.45-9.39,18.86-18.84c4-4,7.93-7.88,11.85-11.87A15.19,15.19,0,0,1,70.86,1.34c2.22-.13,4.38-.93,6.6-1.15,10.87-1.07,20,2.36,27.2,10.7,1.73,2,3.26,4.2,5,6.22a2.64,2.64,0,0,0,1.8.87c7.15,0,14.29,0,21.44-.05,3.87,0,6.54,2,7.21,5.43a8.79,8.79,0,0,1,.12,1.78q0,5.09,0,10.17c0,7-3.49,11.1-10.44,12.18-10.94,1.7-21.9,3.35-32.84,5.07a2.84,2.84,0,0,0-1.58.9,63.78,63.78,0,0,0-9.29,15.17c-.45,1-.9,1.9-1.37,2.83-.57,1.13-.33,1.55,1,1.65,3.66.26,7.33.4,11,.81a18,18,0,0,1,15.56,15.33c.2,1.45.43,2.9.55,4.36.08.9.41,1.26,1.36,1.27a40.57,40.57,0,0,1,5.62.33,9.12,9.12,0,0,1,7.5,11.48c-.81,3-1.65,6.1-2.71,9.07-2,5.58-6.21,8.21-12,8.74-5.29.48-10.57,1.1-15.85,1.66a3.05,3.05,0,0,0-2.55,4.68c1,1.93,2,3.84,2.86,5.78.75,1.57.37,2.8-.93,3.37s-2.32,0-3-1.5c-.93-1.89-1.85-3.78-2.8-5.66a7.47,7.47,0,0,1,6.15-11.07q8.61-.84,17.2-1.87a7.79,7.79,0,0,0,6.82-5.6c1-2.85,1.78-5.77,2.57-8.68a4.72,4.72,0,0,0-4.49-6.11c-1.73-.1-3.47-.17-5.21-.27a4.74,4.74,0,0,1-4.66-4.07c-.3-1.67-.46-3.36-.72-5A13.76,13.76,0,0,0,94.44,78.07C90.78,77.88,87.13,77.59,83.33,77.34Zm52.36-48.15a2.76,2.76,0,0,0,.11-.53c0-1.23,0-2.47,0-3.7,0-1.78-.81-2.59-2.61-2.62s-3.75,0-5.63,0H124c.24,1.32-.62,2.86.84,3.39C128.41,27,132.06,28.05,135.69,29.19Z"/><path class="cls-1" d="M88,21.22a3.29,3.29,0,1,1,3.39,3.23A3.32,3.32,0,0,1,88,21.22Z"/><path class="cls-1" d="M94.06,89.62a3.29,3.29,0,1,1-3.33,3.28A3.33,3.33,0,0,1,94.06,89.62Z"/></g></g></svg>