<svg xmlns="http://www.w3.org/2000/svg" viewBox="0 0 129.25 136.78"><defs><style>.cls-1{fill:#a8886b;}</style></defs><g id="Capa_2" data-name="Capa 2"><g id="Capa_1-2" data-name="Capa 1"><path class="cls-1" d="M58.75,136.78c-1.92-1-2.54-2.56-2.5-4.69.11-5.25,0-10.51,0-15.76v-1.68H54.53q-21.64,0-43.28,0c-6.76,0-11.85-5.38-11.19-11.83C.61,97.36,1.3,91.93,1.94,86.5Q3.49,73.32,5,60.12q1.67-14.25,3.32-28.5c.84-7.25,1.73-14.49,2.55-21.74A10.82,10.82,0,0,1,21.68,0q42.95,0,85.88,0a10.84,10.84,0,0,1,10.78,9.86c1.64,14.19,3.33,28.37,5,42.55.41,3.54.81,7.07,1.2,10.61.17,1.55-.48,2.53-1.72,2.66s-2-.66-2.23-2.14c-.77-6.45-1.51-12.9-2.26-19.35Q116.64,29.88,115,15.57c-.21-1.72-.41-3.44-.62-5.16A6.84,6.84,0,0,0,107.13,4H22.58C18,4,15.42,6.2,14.87,10.74c-1.35,11.26-2.64,22.53-4,33.8Q8.83,62.24,6.74,79.93C5.84,87.62,4.92,95.3,4.05,103a6.88,6.88,0,0,0,7.15,7.64q18.63,0,37.26,0h7.72v-5.09H14.4c-3.68,0-5.33-2-4.9-5.59C10.81,89,12.07,78.05,13.36,67.09S16,45.18,17.25,34.22q1.24-10.47,2.47-20.94A4.28,4.28,0,0,1,24.34,9.1H59.47c1.55,0,2.47.77,2.47,2s-.92,2-2.47,2H23.76C20.29,42.57,16.83,72,13.35,101.46H32.44c0-1.32-.08-2.64,0-3.95.21-2.52.12-5.15.87-7.51,2.46-7.74,7.94-12.31,16-13.18C57,76,63,79.21,67.24,85.63c.12.18.22.38.33.57s.23.38.45.72c.27-.46.49-.82.71-1.18a18.79,18.79,0,0,1,34.87,9.62c0,2,0,4,0,6.09h12.28C112.42,72,109,42.65,105.49,13.1H70.35a7.35,7.35,0,0,1-1.33,0,1.89,1.89,0,0,1-1.7-1.93,1.89,1.89,0,0,1,1.62-2,5.91,5.91,0,0,1,1.33-.05h34.06c3.38,0,4.83,1.22,5.23,4.54q2.28,19.14,4.52,38.3,2.48,20.94,5,41.88c.28,2.3.56,4.59.81,6.89a4.24,4.24,0,0,1-4.29,4.83c-3.92,0-7.83,0-11.85,0v5c.4,0,.78.06,1.17.06,4.32,0,8.63,0,13,0,4.93,0,7.87-3.48,7.28-8.36-1.14-9.31-2.2-18.64-3.29-28a9.43,9.43,0,0,1-.07-1.06,2,2,0,0,1,1.73-2.17,2,2,0,0,1,2.19,1.71c.27,1.62.42,3.26.61,4.89q1.45,12.46,2.9,24.93a10.85,10.85,0,0,1-10.32,12c-4.54.12-9.09,0-13.63,0h-1.62v1.53c0,5.34-.06,10.69,0,16,0,2.16-.67,3.7-2.69,4.57H92.41a4.09,4.09,0,0,1-2.62-3.85H70.06a3.94,3.94,0,0,1-2.76,3.85Zm7.17-4.05c0-.3.07-.47.07-.64,0-12.42.11-24.83,0-37.25C65.8,84.59,54.83,77.77,45.45,81.92,38.39,85,34.69,93.25,36.66,101.48h5.53c0-2.15,0-4.23,0-6.31a9,9,0,0,1,11.63-8.36c4,1.19,6.46,4.69,6.46,9.23q0,17.56,0,35.11v1.58Zm33.68,0v-5.57c0-10.55.09-21.1,0-31.64-.07-6.2-3-10.86-8.66-13.46-5.46-2.5-10.71-1.74-15.38,2-5.63,4.56-6,10.84-5.4,17.36H75.8c0-2.2,0-4.29,0-6.37a9,9,0,0,1,18-.25c.11,2,.09,4.09,0,6.14a2.09,2.09,0,0,0,1,2c3.2,2.33,3.71,7.09.76,9.65a4.84,4.84,0,0,0-1.75,4.59c.07.79-.06,1.61,0,2.39a2,2,0,0,0,.67,1.28,6.57,6.57,0,0,1,0,11,10.09,10.09,0,0,0-.92.93ZM70.08,110.65h8.37c4.14,0,8.27,0,12.41,0a2.48,2.48,0,0,0,2.59-2.48,2.59,2.59,0,0,0-2.4-2.57,7.06,7.06,0,0,0-.8,0H71.18c-.35,0-.69,0-1.1.07Zm0,18a2,2,0,0,0,.44.14h20.4a2.71,2.71,0,0,0,.4,0,2.47,2.47,0,0,0,2.12-2.38,2.38,2.38,0,0,0-1.81-2.49,5,5,0,0,0-1.44-.17q-9.48,0-18.94,0c-.38,0-.77,0-1.17.09ZM56.29,101.51V96.85a16.44,16.44,0,0,0,0-1.86,5,5,0,0,0-4.66-4.53,4.67,4.67,0,0,0-5.12,3.9,50,50,0,0,0-.07,7.15Zm13.76,18.16H89.71v-4.91H70.05Zm9.8-18.2h9.94c0-2.19.09-4.31,0-6.42a5,5,0,0,0-9.88-.28C79.71,97,79.85,99.18,79.85,101.47Z"/><path class="cls-1" d="M64.66,61.68a14,14,0,0,1-20.07,0,13.66,13.66,0,0,1-8.28,4.14,14.83,14.83,0,0,1-3.46,0,1.82,1.82,0,0,1-1.65-2.18,1.76,1.76,0,0,1,2-1.69,10.53,10.53,0,0,0,9.14-3.71c1.32-1.48,3.36-1.3,4.82.28a9.93,9.93,0,0,0,5.4,3.22,9.43,9.43,0,0,0,9-2.76c2.27-2.29,3.77-2.3,6,0a9.67,9.67,0,0,0,14,0c2.25-2.31,3.77-2.3,6,0a9.62,9.62,0,0,0,7.19,3c.31,0,.62,0,.93,0,1.35,0,2.15.61,2.26,1.74a2,2,0,0,1-2,2.23A13.31,13.31,0,0,1,87,63.63c-.81-.55-1.53-1.21-2.4-1.9a13.76,13.76,0,0,1-19.92,0Z"/><path class="cls-1" d="M84.66,45.28c-5,5.06-13.56,6.18-20.11,0a13.79,13.79,0,0,1-19.87,0c-.53.44-1,.86-1.54,1.27a13.22,13.22,0,0,1-7.72,2.93c-1.41.06-2.26-.6-2.35-1.78a1.92,1.92,0,0,1,2-2.17,10.38,10.38,0,0,0,7.17-3.64c1.44-1.6,3.47-1.4,5.11.35,2.75,2.94,6.12,4,9.92,2.83a12.84,12.84,0,0,0,4.55-2.85c2-1.77,3.71-1.9,5.53,0a9.63,9.63,0,0,0,14.51,0c1.84-1.94,3.68-1.95,5.48,0a9.7,9.7,0,0,0,6.52,3.23c1.61.13,2.39.92,2.31,2.19s-1,1.89-2.59,1.79A13.76,13.76,0,0,1,84.66,45.28Z"/><path class="cls-1" d="M84.68,28.73a14.11,14.11,0,0,1-20.12,0,13.79,13.79,0,0,1-19.88,0l-.91.76a12.85,12.85,0,0,1-6.23,3.15,1.94,1.94,0,0,1-2.44-1.5,1.91,1.91,0,0,1,1.49-2.32,11.5,11.5,0,0,0,5.69-3.51c1.44-1.57,3.45-1.34,5.11.41,3,3.12,7.09,4.17,10.83,2.52a13.27,13.27,0,0,0,3.65-2.59c1.88-1.78,3.68-1.86,5.44,0,4.27,4.48,10.36,4.5,14.6,0,1.77-1.87,3.67-1.89,5.39,0a10,10,0,0,0,4.92,3c1.56.41,2.22,1.35,1.9,2.54s-1.4,1.75-3,1.32A13.89,13.89,0,0,1,84.68,28.73Z"/></g></g></svg>