<svg xmlns="http://www.w3.org/2000/svg" viewBox="0 0 154.84 154.88"><defs><style>.cls-1{fill:#a8886b;}</style></defs><g id="Capa_2" data-name="Capa 2"><g id="Capa_1-2" data-name="Capa 1"><path class="cls-1" d="M151.52,154.88a3.74,3.74,0,0,1-1.54-3.51c.07-5,0-10,0-15s-2.39-8.39-6.94-10.09c-6.83-2.55-13.59-5.33-20.55-7.48A31.94,31.94,0,0,0,99.64,120c-5.16,2.26-10.42,4.28-15.64,6.4a9.85,9.85,0,0,0-6.63,9.68c-.07,5.14-.05,10.28,0,15.42a3.38,3.38,0,0,1-1.76,3.38H74.1a3.37,3.37,0,0,1-1.61-3.3c.06-5,0-10,0-15,0-7.17,3.43-12.15,10-14.83,5.31-2.16,10.6-4.36,15.93-6.48a1.8,1.8,0,0,0,1.34-1.86c.13-2.37.46-4.72.59-7.08a2.43,2.43,0,0,0-.66-1.67A18.44,18.44,0,0,1,94,90.87c0-4.08,0-8.16,0-12.24,0-11.94,8.06-19.71,20-19.42,7.67.19,13.85,3.08,17.29,10.26a18.69,18.69,0,0,1,1.82,7.1c.23,5.63.16,11.28-.09,16.91a15.93,15.93,0,0,1-5.17,10.78,2.8,2.8,0,0,0-1,2.74,59.56,59.56,0,0,1,.66,6.92,1.93,1.93,0,0,0,1.56,2c5.15,1.88,10.27,3.86,15.41,5.77a14.84,14.84,0,0,1,10.06,11.8,2.57,2.57,0,0,0,.25.53v20.87ZM98.88,84.56h0c0,2.22,0,4.43,0,6.65a13.26,13.26,0,0,0,4.84,10.48,6,6,0,0,0,3.37,1.31c4.37.15,8.76.14,13.14,0a5.86,5.86,0,0,0,3.28-1.17,11.46,11.46,0,0,0,4.69-8.32,167.37,167.37,0,0,0,.15-16.91c-.3-5.74-3.32-10-9-11.63a23.49,23.49,0,0,0-8.19-.74c-7.16.51-12.09,5.91-12.3,13.08C98.82,79.72,98.88,82.14,98.88,84.56Zm5.79,28.72a43.33,43.33,0,0,1,18,.48c-.17-1.7-.35-3.14-.46-4.59a1.33,1.33,0,0,0-1.46-1.38c-4.73,0-9.46,0-14.19,0a1.45,1.45,0,0,0-1.59,1.46C104.89,110.49,104.8,111.73,104.67,113.28Z"/><path class="cls-1" d="M154.84,44.48a23.23,23.23,0,0,1-1,2.16,7,7,0,0,1-6.16,4c-1.61.06-3.22,0-4.83,0H93.31c-5.7,0-8.63-2.94-8.64-8.66,0-1.41-.06-2.83,0-4.23a1.68,1.68,0,0,0-1.12-1.85c-3.43-1.69-6.81-3.49-10.23-5.19a5.27,5.27,0,0,1,0-9.71c3.42-1.7,6.8-3.49,10.23-5.19a1.6,1.6,0,0,0,1.08-1.71c-.07-2.12,0-4.24,0-6.35A7.53,7.53,0,0,1,92.54,0h54c4.44,0,6.76,1.72,8.11,6a1.83,1.83,0,0,0,.23.38ZM74.67,25.89c.68.38,1.1.62,1.54.85,3.84,2,7.68,4,11.54,5.93a2.9,2.9,0,0,1,1.77,2.88c0,2.31,0,4.63,0,7s.92,3.31,3.29,3.31h54c2.26,0,3.24-1,3.25-3.21q0-17.24,0-34.47c0-2.31-1-3.28-3.33-3.28H92.87c-2.4,0-3.34,1-3.36,3.4s-.05,5.14,0,7.71a3.16,3.16,0,0,1-1.94,3.24c-3.83,1.9-7.61,3.9-11.41,5.86C75.74,25.28,75.33,25.52,74.67,25.89Z"/><path class="cls-1" d="M73.53,75.5c1.29,0,2.39,0,3.48,0,4.24.12,6.82,2.95,6.16,7.14C82,90,80.67,97.23,79.39,104.53c-.44,2.53-.86,5.06-1.35,7.58a8.33,8.33,0,0,1-8.14,6.78q-26.09,0-52.17,0c-3.46,0-5.52-1.69-6.36-5-.46-1.8-.93-3.61-1.34-5.42-.51-2.31.43-3.5,2.79-3.51,3.48,0,7-.06,10.43,0,1.22,0,1.72-.23,1.94-1.57,1.12-7,2.39-13.9,3.59-20.84a8.21,8.21,0,0,1,4.76-6.39c.34-.16.8-.57.8-.88.06-3.3,0-6.61,0-10.26l-5.11,3.73c-.53.39-1,.8-1.59,1.16-1.77,1.16-3.39.64-4-1.37-1.16-3.54-2.26-7.1-3.38-10.65-.17-.52-.36-1-.6-1.72C16,57.78,12.32,59.19,8.89,61c-2.89,1.55-4,4.39-4,7.64q0,14.52,0,29c0,2.52-.73,3.63-2.39,3.64S0,100.24,0,97.77V69.19c0-6.54,3-11.12,9-13.67,3.24-1.36,6.55-2.63,9.66-4.26a20.83,20.83,0,0,0,5.05-4c.62-.63.45-2,.71-3a4.48,4.48,0,0,0-1.38-4.79A13.44,13.44,0,0,1,19.2,30.2a122.7,122.7,0,0,1,.18-15.7C20.12,6.89,25.4,1.63,33,.37c6-1,11.67,0,16.37,4.19a14.48,14.48,0,0,1,5,10.38c.22,5.53.13,11.09-.17,16.61a13.42,13.42,0,0,1-4.45,8.86,2.86,2.86,0,0,0-.78,2.36c-.1,4.84,3,7.15,6.79,8.89,3.07,1.4,6.19,2.68,9.27,4,5.71,2.54,8.54,7,8.57,13.2C73.54,71,73.53,73.13,73.53,75.5ZM56.86,80.34c-6.6,0-13.21,0-19.81,0-2.12,0-3.12.89-3.48,3l-4.92,28.12c-.35,2,.14,2.6,2.14,2.6H69.35c2.34,0,3.63-1,4-3.24q2.5-14.05,4.93-28.12c.36-2.08.08-2.36-2.1-2.36ZM49.79,23.23c-6.79,1.15-12.38-.39-16.65-5.71-2.49,2.85-5.59,3.61-9.17,3.07,0,3.1-.19,6.08,0,9,.45,5.75,4.24,9.1,8.94,11.67a4.85,4.85,0,0,0,1.74.44c6.22.82,13.24-3.93,14.51-10.08A62.87,62.87,0,0,0,49.79,23.23Zm4.08,32.91c-1.27,4-2.49,7.82-3.71,11.65-1,3-2.34,3.44-4.88,1.6l-5.94-4.3V75.4H68.68c0-2.51.07-4.92,0-7.33a8.24,8.24,0,0,0-4.9-7.58C60.58,59,57.32,57.65,53.87,56.14ZM24.17,15.55c3.21.73,5-.23,6.68-3.5.51-1,1.25-2,2.39-1.67a3.7,3.7,0,0,1,2.21,1.7c2.69,5.24,7.59,7.67,13.28,6.35a1.46,1.46,0,0,0,.86-1.06,11.36,11.36,0,0,0-9-12.1,16.28,16.28,0,0,0-8.51.25A10.78,10.78,0,0,0,24.17,15.55ZM29,44.88c.1,1.3-.18,2.54.31,3.15,2.37,2.92,4.94,5.67,7.52,8.55,2.25-2.54,4.34-5.06,6.62-7.4a3.44,3.44,0,0,0,.8-4.12A17.45,17.45,0,0,1,29,44.88Zm4.25,14.94L25.9,51.57c-.68,1-1.79,2-1.63,2.64.81,3.3,1.95,6.52,3,9.92Zm7.14,0,5.89,4.3,2.68-8.37c.75-2.36.75-2.36-1.58-3.82Zm-25,50c.28,1.18.48,2.26.81,3.3.12.36.56.86.87.87,2.22.08,4.45,0,6.56,0l.24-4.21Z"/><path class="cls-1" d="M19,90.91c0,2.51,0,5,0,7.54,0,1.82-.89,2.87-2.36,2.9s-2.47-1-2.47-2.92q0-7.62,0-15.23c0-1.78.93-2.83,2.42-2.83s2.39,1,2.41,2.85C19.06,85.78,19,88.34,19,90.91Z"/><path class="cls-1" d="M120.17,17c-5.9,0-11.79,0-17.68,0-1.83,0-2.77-.9-2.7-2.49a2.14,2.14,0,0,1,1.86-2.23,9.09,9.09,0,0,1,1.65-.11h34a9.57,9.57,0,0,1,1.2,0,2.32,2.32,0,0,1,2.26,2.52A2.22,2.22,0,0,1,138.3,17C132.25,17,126.21,17,120.17,17Z"/><path class="cls-1" d="M120.33,23H138c1.8,0,2.73.79,2.75,2.29a2.24,2.24,0,0,1-2,2.47,6,6,0,0,1-1.2.07H103c-2,0-2.9-.57-3.17-1.89A2.34,2.34,0,0,1,102.34,23c4.79,0,9.57,0,14.36,0Z"/><path class="cls-1" d="M112.79,38.46c-3.43,0-6.85,0-10.28,0-1.77,0-2.7-.83-2.73-2.33s.92-2.49,2.74-2.49c6.91,0,13.81,0,20.72,0,1.81,0,2.84.94,2.83,2.45s-1,2.37-2.85,2.38Z"/><path class="cls-1" d="M58.06,97.14a2.41,2.41,0,0,1-2.42,2.38,2.49,2.49,0,0,1-2.39-2.45,2.44,2.44,0,0,1,2.45-2.36A2.37,2.37,0,0,1,58.06,97.14Z"/></g></g></svg>