<svg xmlns="http://www.w3.org/2000/svg" viewBox="0 0 154.84 154.78"><defs><style>.cls-1{fill:#a8886b;}</style></defs><g id="Capa_2" data-name="Capa 2"><g id="Capa_1-2" data-name="Capa 1"><path class="cls-1" d="M42.39,139.8v-20H37.06c-4.58,0-9.16,0-13.73,0-2.17,0-2.66-.35-3.48-2.46a19.37,19.37,0,0,1-13-4.64A19.12,19.12,0,0,1,4,86.34c6.52-8.62,13.19-17.13,19.72-25.74a11.33,11.33,0,0,0,1.85-4c1.24-5.09,2.32-10.23,3.46-15.35s5.37-7.46,10.38-5.55a2,2,0,0,0,.27.07c.69-3.22,1.12-6.48,2.09-9.58C46.94,9.79,62.89-1.14,79.68.09c17.63,1.3,31.7,13.88,34.61,31.05.36,2.14.34,4.34.62,6.5a2.88,2.88,0,0,0,.87,1.75,10.28,10.28,0,0,1,4.09,8.37c0,3.17,0,6.34,0,9.51A10,10,0,0,1,109.65,67.4c-2.65,0-5.31.08-8,0a2.11,2.11,0,0,0-2.25,1.55c2.66.75,5.26,1.44,7.84,2.22a138.76,138.76,0,0,1,42.17,21c5.93,4.33,7.07,11.07,2.88,17.1a54.18,54.18,0,0,1-24.11,19.34,5.67,5.67,0,0,0-2.31,2.07c-2,2.92-3.79,5.93-5.72,9,.4,0,.83.08,1.26.08H136.6c2.42,0,3.24.83,3.24,3.3,0,2.86,0,5.72,0,8.58,0,2.22-.89,3.09-3.15,3.09H18.12c-2.24,0-3.11-.88-3.12-3.13q0-4.36,0-8.73c0-2.24.88-3.11,3.12-3.11H42.39Zm-17.4-25H43.67c3.16,0,3.79.64,3.79,3.86v21H68.31l5.8-13.55-9.32-3.74c-2.62-1.07-3-2.58-1.32-4.8q5.4-7,10.82-13.91c2-2.59,4-5.18,6-7.76a2.51,2.51,0,0,1,4.59,1.56v17.82c2.51.63,4.92,1.23,7.32,1.86,2.8.73,3.38,2.27,1.77,4.69q-5.43,8.19-10.89,16.35c-.3.44-.56.91-.9,1.47H103c.86-3.46,1.73-6.88,2.57-10.3a13,13,0,0,1,3.54-6.3,3.13,3.13,0,0,0,.79-1.85c.09-2,0-4.05,0-6.08s.94-2.84,2.9-2.86,4.06-.06,6.08,0a2,2,0,0,0,2-1.1,97.92,97.92,0,0,1,12.25-16.11c1.49-1.58,3.2-3,4.8-4.44-.4-.41-.45-.51-.53-.56l-1.06-.66A136.34,136.34,0,0,0,97.7,73.65c-1.59-.39-2.85-.36-4.09.86a10.15,10.15,0,0,1-2.6,1.7,2,2,0,0,0-1.15,1.94A12.46,12.46,0,0,1,65,78.1c-.07-1.33-.43-1.63-1.67-1.25A208.87,208.87,0,0,0,34.8,87.69a5,5,0,0,0-1.39,1.16q-3.85,4.26-7.66,8.57A2.57,2.57,0,0,0,25,98.83C25,104.08,25,109.33,25,114.84ZM54.82,51.78c.19,1.7.25,3.43.59,5.09,2.37,11.33,13,19.2,24.09,17.95A22.57,22.57,0,0,0,99.9,52.13c0-6.29-1.65-12.22-3.79-18.05a2.1,2.1,0,0,0-2.4-1.58,18.15,18.15,0,0,0-5.43,1.65c-7.28,4.31-14.39,4.31-21.67,0a18.54,18.54,0,0,0-5.43-1.66A2.08,2.08,0,0,0,58.75,34C56.67,39.77,54.93,45.58,54.82,51.78ZM37.75,40.55c-2-1-3.27-.46-3.72,1.49-1.27,5.61-2.45,11.25-3.79,16.85a10.37,10.37,0,0,1-1.74,3.73C21.81,71.44,15,80.2,8.29,89a14.31,14.31,0,0,0-3,12c1.31,6.79,8.07,12,14.59,11.25V101.48l-1.34.49c-.68-1.35-1.31-2.6-1.93-3.85a2,2,0,0,1-.09-.52l1-.62a32.06,32.06,0,0,0,16-21.41c.88-3.81,1.85-7.46,4.75-10.28.06-.05,0-.19.05-.38-2.76-2.42-3.64-5.61-3.46-9.22.09-1.71.07-3.43,0-5.14C34.84,47,35,43.46,37.75,40.55Zm97,109.17v-4.83H20.11v4.83Zm-26.7-9.92c1.79,0,3.29,0,4.79,0a1.89,1.89,0,0,0,1.27-.66c2.08-2.85,4.46-5.56,6-8.68a15.44,15.44,0,0,1,8.45-7.57,45.24,45.24,0,0,0,19.86-16.75c2.08-3,1.82-6.64-.78-8.91-1.71-1.49-3.65-2.7-5.44-4a3.6,3.6,0,0,0-.55.35c-1,1-2.09,2-3.11,3.06a107.51,107.51,0,0,0-18.45,25.93,3.92,3.92,0,0,1-3.49,2.38,6.26,6.26,0,0,0-5.83,4.46C109.75,132.72,109,136.17,108.06,139.8ZM49.88,37.39c.47-15.75,12.34-26.48,25.75-27.34a26.55,26.55,0,0,1,18.28,5.46C101.1,21,104.62,28.4,105,37.33h5c-.65-12.68-6.1-22.47-17.25-28.4-11.6-6.18-23.23-5.39-34,2.13-9,6.28-13.38,15.27-13.75,26.33ZM57,28.58a9,9,0,0,1,7.16-.74,24.51,24.51,0,0,1,5.42,2.25c5.24,3.05,10.4,3.15,15.61,0,4-2.38,8.11-3.63,12.7-1.66C95.37,20.91,86.28,15,77.34,15S59.39,21,57,28.58ZM51,42.47c-2.35,0-4.48-.11-6.6,0A4.79,4.79,0,0,0,40,47.17q-.12,5.22,0,10.45a4.87,4.87,0,0,0,4.67,4.76c2.33.1,4.67,0,7.19,0C49.26,55.86,49.72,49.28,51,42.47Zm52,20H109c.36,0,.72,0,1.09,0a4.91,4.91,0,0,0,4.72-4.71c.09-3.53.09-7.07,0-10.6a4.73,4.73,0,0,0-4.19-4.55c-2.21-.19-4.45,0-6.8,0C105.09,49.21,105.61,55.8,103,62.42ZM69,118.74,77,122c3.26,1.3,3.54,2,2.13,5.28l-4.47,10.45c-.27.65-.51,1.31-.77,2a2.5,2.5,0,0,0,3.29-1.35c1.26-2.15,2.73-4.17,4.12-6.25l7.08-10.63-6-1.55c-1.85-.49-2.4-1.19-2.41-3.08,0-3.53,0-7.07,0-10.6,0-.37-.07-.74-.14-1.36ZM37.45,80.8l21.43-8c-1.22-1.45-2.44-3-3.78-4.42a3.08,3.08,0,0,0-1.85-1c-3.17-.12-6.33-.09-9.5-.1-.28,0-.69.05-.82.24-1.17,1.63-2.64,3.17-3.34,5A67.64,67.64,0,0,0,37.45,80.8Zm32.78-1.89a7.3,7.3,0,0,0,7.47,6c3.42-.12,6.53-2.76,6.82-6A26.77,26.77,0,0,1,70.23,78.91ZM115,120l.46.26,1.89-2.8H115Z"/><path class="cls-1" d="M115,120v-2.54h2.35l-1.89,2.8Z"/></g></g></svg>